<svg xmlns="http://www.w3.org/2000/svg" viewBox="0 0 22.483 23.26"><defs><style>.a{fill:#fff;}</style></defs><g transform="translate(-313.656 -285.817)"><path class="a" d="M21.8,1.362H17.3V.686a.686.686,0,0,0-1.371,0v.677H11.927V.686a.686.686,0,1,0-1.371,0v.677H6.72V.686a.686.686,0,0,0-1.371,0v.677H.686A.686.686,0,0,0,0,2.048V17.541a.686.686,0,0,0,.686.686H4.895a6.518,6.518,0,0,0,12.694,0H21.8a.686.686,0,0,0,.686-.686V2.048a.685.685,0,0,0-.686-.686ZM5.348,2.734v.619a.686.686,0,0,0,1.371,0V2.734h3.835v.619a.686.686,0,0,0,1.371,0V2.734h4.006v.619a.686.686,0,0,0,1.371,0V2.734h3.808v2.8H1.371v-2.8Zm5.893,19.156a5.148,5.148,0,1,1,5.148-5.148A5.154,5.154,0,0,1,11.242,21.889Zm6.517-5.034c0-.038,0-.075,0-.114a6.52,6.52,0,1,0-13.039,0c0,.039,0,.077,0,.114H1.371V6.908h19.74v9.947Z" transform="translate(313.656 285.817)"/><path class="a" d="M93.741,116.973v-3.318a.686.686,0,1,0-1.371,0v3.6a.682.682,0,0,0,.2.485l1.576,1.576a.686.686,0,1,0,.969-.97l-1.375-1.374Z" transform="translate(231.842 185.757)"/></g></svg>