<svg xmlns="http://www.w3.org/2000/svg" viewBox="0 0 38 25.589"><defs><style>.a{fill:#505050;}</style></defs><g transform="translate(-310 -285)"><path class="a" d="M17.225,55.3a1.667,1.667,0,0,1-1.667,1.667H7.111A1.667,1.667,0,0,1,5.444,55.3a3.523,3.523,0,0,1,3.519-3.52h.349a3.43,3.43,0,1,1,4.041,0H13.7a3.524,3.524,0,0,1,3.517,3.373Q17.226,55.222,17.225,55.3ZM38,38.482V61.571a1.25,1.25,0,0,1-1.25,1.25H1.25A1.25,1.25,0,0,1,0,61.571V38.482a1.25,1.25,0,0,1,1.25-1.25h35.5A1.25,1.25,0,0,1,38,38.482ZM19.107,42.755a1.25,1.25,0,0,0-1.25-1.25H4.81a1.25,1.25,0,0,0-1.25,1.25V57.3a1.25,1.25,0,0,0,1.25,1.25H17.857a1.25,1.25,0,0,0,1.25-1.25V42.755ZM34.123,55.36a1.25,1.25,0,0,0-1.25-1.25H23.944a1.25,1.25,0,1,0,0,2.5h8.929A1.25,1.25,0,0,0,34.123,55.36Zm0-5.333a1.25,1.25,0,0,0-1.25-1.25H23.944a1.25,1.25,0,0,0,0,2.5h8.929A1.25,1.25,0,0,0,34.123,50.027Zm0-5.333a1.25,1.25,0,0,0-1.25-1.25H23.944a1.25,1.25,0,1,0,0,2.5h8.929A1.25,1.25,0,0,0,34.123,44.693Z" transform="translate(310 247.768)"/></g></svg>