<svg version="1.1" viewBox="0.0 0.0 566.9291338582677 566.9291338582677" fill="none" stroke="none" stroke-linecap="square" stroke-miterlimit="10" xmlns:xlink="http://www.w3.org/1999/xlink" xmlns="http://www.w3.org/2000/svg"><clipPath id="g4cb7a65727_0_0.0"><path d="m0 0l566.92914 0l0 566.92914l-566.92914 0l0 -566.92914z" clip-rule="nonzero"/></clipPath><g clip-path="url(#g4cb7a65727_0_0.0)"><path fill="#ffffff" d="m0 0l566.92914 0l0 566.92914l-566.92914 0z" fill-rule="evenodd"/><path fill="#eeeeee" d="m12.375328 60.1355l445.88977 0l0 445.88977l-445.88977 0z" fill-rule="evenodd"/><path fill="#3d85c6" d="m12.375328 60.1355l445.88977 0l0 103.52756l-445.88977 0z" fill-rule="evenodd"/><path fill="#eeeeee" d="m50.123714 199.84258l92.59842 0l0 92.598434l-92.59842 0z" fill-rule="evenodd"/><path stroke="#b7b7b7" stroke-width="12.0" stroke-linejoin="round" stroke-linecap="butt" d="m50.123714 199.84258l92.59842 0l0 92.598434l-92.59842 0z" fill-rule="evenodd"/><path fill="#eeeeee" d="m142.72195 199.84258l92.598434 0l0 92.598434l-92.598434 0z" fill-rule="evenodd"/><path stroke="#b7b7b7" stroke-width="12.0" stroke-linejoin="round" stroke-linecap="butt" d="m142.72195 199.84258l92.598434 0l0 92.598434l-92.598434 0z" fill-rule="evenodd"/><path fill="#eeeeee" d="m235.3202 199.84258l92.598434 0l0 92.598434l-92.598434 0z" fill-rule="evenodd"/><path stroke="#b7b7b7" stroke-width="12.0" stroke-linejoin="round" stroke-linecap="butt" d="m235.3202 199.84258l92.598434 0l0 92.598434l-92.598434 0z" fill-rule="evenodd"/><path fill="#eeeeee" d="m327.91846 199.84258l92.59842 0l0 92.598434l-92.59842 0z" fill-rule="evenodd"/><path stroke="#b7b7b7" stroke-width="12.0" stroke-linejoin="round" stroke-linecap="butt" d="m327.91846 199.84258l92.59842 0l0 92.598434l-92.59842 0z" fill-rule="evenodd"/><path fill="#eeeeee" d="m235.3202 292.441l92.598434 0l0 92.59845l-92.598434 0z" fill-rule="evenodd"/><path stroke="#b7b7b7" stroke-width="12.0" stroke-linejoin="round" stroke-linecap="butt" d="m235.3202 292.441l92.598434 0l0 92.59845l-92.598434 0z" fill-rule="evenodd"/><path fill="#eeeeee" d="m327.91846 292.441l92.59842 0l0 92.59845l-92.59842 0z" fill-rule="evenodd"/><path stroke="#b7b7b7" stroke-width="12.0" stroke-linejoin="round" stroke-linecap="butt" d="m327.91846 292.441l92.59842 0l0 92.59845l-92.59842 0z" fill-rule="evenodd"/><path fill="#eeeeee" d="m50.123714 385.0395l92.59842 0l0 92.59842l-92.59842 0z" fill-rule="evenodd"/><path stroke="#b7b7b7" stroke-width="12.0" stroke-linejoin="round" stroke-linecap="butt" d="m50.123714 385.0395l92.59842 0l0 92.59842l-92.59842 0z" fill-rule="evenodd"/><path fill="#eeeeee" d="m142.72195 385.0395l92.598434 0l0 92.59842l-92.598434 0z" fill-rule="evenodd"/><path stroke="#b7b7b7" stroke-width="12.0" stroke-linejoin="round" stroke-linecap="butt" d="m142.72195 385.0395l92.598434 0l0 92.59842l-92.598434 0z" fill-rule="evenodd"/><path fill="#eeeeee" d="m235.3202 385.0395l92.598434 0l0 92.59842l-92.598434 0z" fill-rule="evenodd"/><path stroke="#b7b7b7" stroke-width="12.0" stroke-linejoin="round" stroke-linecap="butt" d="m235.3202 385.0395l92.598434 0l0 92.59842l-92.598434 0z" fill-rule="evenodd"/><path fill="#eeeeee" d="m327.91846 385.0395l92.59842 0l0 92.59842l-92.59842 0z" fill-rule="evenodd"/><path stroke="#b7b7b7" stroke-width="12.0" stroke-linejoin="round" stroke-linecap="butt" d="m327.91846 385.0395l92.59842 0l0 92.59842l-92.59842 0z" fill-rule="evenodd"/><path fill="#595959" d="m80.83835 32.871616l0 0c0 -6.210066 5.0342484 -11.24432 11.244316 -11.24432l44.97593 0l0 0c2.9821777 0 5.842209 1.1846657 7.9509277 3.2933846c2.1087189 2.1087189 3.293396 4.9687557 3.293396 7.9509354l0 70.10979c0 6.2100677 -5.034256 11.244324 -11.244324 11.244324l-44.97593 0c-6.2100677 0 -11.244316 -5.034256 -11.244316 -11.244324z" fill-rule="evenodd"/><path fill="#595959" d="m323.00003 32.871616l0 0c0 -6.210066 5.0342712 -11.24432 11.244324 -11.24432l44.975952 0l0 0c2.9821777 0 5.8421936 1.1846657 7.9509277 3.2933846c2.1087036 2.1087189 3.2933655 4.9687557 3.2933655 7.9509354l0 70.10979c0 6.2100677 -5.0342407 11.244324 -11.244293 11.244324l-44.975952 0c-6.2100525 0 -11.244324 -5.034256 -11.244324 -11.244324z" fill-rule="evenodd"/><path fill="#eeeeee" d="m50.123714 292.441l92.59842 0l0 92.59845l-92.59842 0z" fill-rule="evenodd"/><path stroke="#b7b7b7" stroke-width="12.0" stroke-linejoin="round" stroke-linecap="butt" d="m50.123714 292.441l92.59842 0l0 92.59845l-92.59842 0z" fill-rule="evenodd"/><path fill="#6fa8dc" d="m142.72214 292.441l92.59842 0l0 92.59845l-92.59842 0z" fill-rule="evenodd"/><path stroke="#b7b7b7" stroke-width="12.0" stroke-linejoin="round" stroke-linecap="butt" d="m142.72214 292.441l92.59842 0l0 92.59845l-92.59842 0z" fill-rule="evenodd"/><path fill="#eeeeee" d="m303.42258 410.26773l0 0c0 -64.27377 52.104187 -116.37796 116.37796 -116.37796l0 0c30.865326 0 60.466522 12.2612 82.291626 34.086304c21.825073 21.825104 34.086304 51.4263 34.086304 82.29166l0 0c0 64.27374 -52.104187 116.37796 -116.37793 116.37796l0 0c-64.27377 0 -116.37796 -52.104218 -116.37796 -116.37796z" fill-rule="evenodd"/><path stroke="#3d85c6" stroke-width="24.0" stroke-linejoin="round" stroke-linecap="butt" d="m303.42258 410.26773l0 0c0 -64.27377 52.104187 -116.37796 116.37796 -116.37796l0 0c30.865326 0 60.466522 12.2612 82.291626 34.086304c21.825073 21.825104 34.086304 51.4263 34.086304 82.29166l0 0c0 64.27374 -52.104187 116.37796 -116.37793 116.37796l0 0c-64.27377 0 -116.37796 -52.104218 -116.37796 -116.37796z" fill-rule="evenodd"/><path fill="#ffffff" d="m338.6509 410.26773l0 0c0 -44.81772 36.33194 -81.14963 81.14963 -81.14963l0 0c21.522217 0 42.162933 8.549683 57.38144 23.768188c15.218475 15.218506 23.768158 35.859222 23.768158 57.38144l0 0c0 44.817688 -36.33191 81.1496 -81.1496 81.1496l0 0c-44.817688 0 -81.14963 -36.33191 -81.14963 -81.1496z" fill-rule="evenodd"/><path fill="#eeeeee" d="m406.52493 410.26773l0 0c0 -7.331909 5.943695 -13.275604 13.275604 -13.275604l0 0c3.5209045 0 6.897583 1.3986816 9.387238 3.8883362c2.4896545 2.4896545 3.8883362 5.8663635 3.8883362 9.387268l0 0c0 7.3318787 -5.9436646 13.275574 -13.275574 13.275574l0 0c-7.331909 0 -13.275604 -5.943695 -13.275604 -13.275574z" fill-rule="evenodd"/><path stroke="#595959" stroke-width="12.0" stroke-linejoin="round" stroke-linecap="butt" d="m406.52493 410.26773l0 0c0 -7.331909 5.943695 -13.275604 13.275604 -13.275604l0 0c3.5209045 0 6.897583 1.3986816 9.387238 3.8883362c2.4896545 2.4896545 3.8883362 5.8663635 3.8883362 9.387268l0 0c0 7.3318787 -5.9436646 13.275574 -13.275574 13.275574l0 0c-7.331909 0 -13.275604 -5.943695 -13.275604 -13.275574z" fill-rule="evenodd"/><path fill="#595959" d="m416.2257 329.40158l7.1496277 0l0 63.275574l-7.1496277 0z" fill-rule="evenodd"/><path stroke="#595959" stroke-width="1.0" stroke-linejoin="round" stroke-linecap="butt" d="m416.2257 329.40158l7.1496277 0l0 63.275574l-7.1496277 0z" fill-rule="evenodd"/><path fill="#3d85c6" d="m416.2257 307.27036l7.1496277 0l0 17.385803l-7.1496277 0z" fill-rule="evenodd"/><path fill="#3d85c6" d="m416.2257 495.87927l7.1496277 0l0 17.385803l-7.1496277 0z" fill-rule="evenodd"/><path fill="#3d85c6" d="m522.7979 406.6929l0 7.1496277l-17.385834 0l0 -7.1496277z" fill-rule="evenodd"/><path fill="#3d85c6" d="m334.18896 406.6929l0 7.1496277l-17.385803 0l0 -7.1496277z" fill-rule="evenodd"/><path fill="#595959" d="m478.32285 406.6929l0 7.1496277l-40.1575 0l0 -7.1496277z" fill-rule="evenodd"/><path stroke="#595959" stroke-width="1.0" stroke-linejoin="round" stroke-linecap="butt" d="m478.32285 406.6929l0 7.1496277l-40.1575 0l0 -7.1496277z" fill-rule="evenodd"/><path fill="#3d85c6" d="m490.11758 334.97443l5.055481 5.0562134l-12.295258 12.293518l-5.055481 -5.0562134z" fill-rule="evenodd"/><path fill="#3d85c6" d="m356.73334 468.3398l5.055481 5.056183l-12.295258 12.293518l-5.055481 -5.056183z" fill-rule="evenodd"/><path fill="#3d85c6" d="m495.16312 480.64398l-5.0562134 5.055481l-12.293518 -12.295258l5.0562134 -5.055481z" fill-rule="evenodd"/><path fill="#3d85c6" d="m361.79776 347.25974l-5.0562134 5.0555115l-12.293518 -12.295258l5.0562134 -5.0555115z" fill-rule="evenodd"/></g></svg>