<?xml version="1.0" encoding="utf-8"?>
<!-- Generator: Adobe Illustrator 15.1.0, SVG Export Plug-In . SVG Version: 6.00 Build 0)  -->
<!DOCTYPE svg PUBLIC "-//W3C//DTD SVG 1.1//EN" "http://www.w3.org/Graphics/SVG/1.1/DTD/svg11.dtd" [
	<!ENTITY ns_extend "http://ns.adobe.com/Extensibility/1.0/">
	<!ENTITY ns_ai "http://ns.adobe.com/AdobeIllustrator/10.0/">
	<!ENTITY ns_graphs "http://ns.adobe.com/Graphs/1.0/">
	<!ENTITY ns_vars "http://ns.adobe.com/Variables/1.0/">
	<!ENTITY ns_imrep "http://ns.adobe.com/ImageReplacement/1.0/">
	<!ENTITY ns_sfw "http://ns.adobe.com/SaveForWeb/1.0/">
	<!ENTITY ns_custom "http://ns.adobe.com/GenericCustomNamespace/1.0/">
	<!ENTITY ns_adobe_xpath "http://ns.adobe.com/XPath/1.0/">
]>
<svg version="1.1" id="Layer_2" xmlns:x="&ns_extend;" xmlns:i="&ns_ai;" xmlns:graph="&ns_graphs;"
	 xmlns="http://www.w3.org/2000/svg" xmlns:xlink="http://www.w3.org/1999/xlink" x="0px" y="0px" width="176px" height="208px"
	 viewBox="1831.559 1750.917 176 208" enable-background="new 1831.559 1750.917 176 208" xml:space="preserve">
<metadata>
	<sfw  xmlns="&ns_sfw;">
		<slices></slices>
		<sliceSourceBounds  y="3352.083" x="-1898.643" height="209.823" width="169.423" bottomLeftOrigin="true"></sliceSourceBounds>
	</sfw>
</metadata>
<g transform="translate(0.000000,10481.000000) scale(0.100000,-0.100000)">
	<path fill="#284480" d="M19470.93,87318.391c-4.137-1.469-7.604-5.078-8.805-9.25c-0.844-2.688-17.885-149.531-17.885-153.797
		c0-5.5,3.129-10.344,8.135-12.859c3.686-1.75,8.549-1.852,12.289-0.195c3.105,1.336,6.523,4.852,7.607,7.836
		c0.514,1.484,3.76,27.812,9.609,78.594c9.674,83.516,9.273,78.766,6.592,83.344c-1.602,2.773-4.682,5.344-7.484,6.266
		C19478.254,87319.25,19473.488,87319.328,19470.93,87318.391z"/>
	<path fill="#284480" d="M19640.377,87238.234c-2.314-0.703-6.074-4.375-57.832-56.016c-44.678-44.703-55.586-55.781-56.498-57.734
		c-1.621-3.406-1.621-8.719,0-12.266c1.357-2.969,3.988-5.609,7.061-7.125c3.232-1.609,9.096-1.609,12.529,0.055
		c1.938,0.938,13.018,11.758,56.986,55.68c48.932,48.883,54.703,54.797,55.869,57.359c4.346,9.578-2.016,20.312-12.445,20.672
		C19644.133,87238.953,19641.799,87238.656,19640.377,87238.234z"/>
	<path fill="#284480" d="M18957.561,87102.945c-5.664-0.898-12.125-2.727-17.34-4.914c-23.891-10.273-40.648-31.461-46-58.281
		l-1.143-5.625l-0.137-448.344c-0.094-310.398,0.053-450.188,0.385-454.188c3.291-36.883,30.621-66.625,65.543-71.109
		c2.891-0.438,74.922-0.531,246.811-0.438l242.76,0.156l4.199,1.062c20.605,5.141,36.211,16.203,47.51,33.547
		c7.344,11.227,11.42,23.719,12.51,38.156c0.781,10.391,0.381,899.547-0.406,903.828c-3.451,18.844-10.479,32.82-22.562,44.945
		c-10.104,10.164-22.994,17.273-37.49,20.617l-4.746,1.125l-242.754,0.047
		C18999.273,87103.625,18961.275,87103.531,18957.561,87102.945z M19422.287,87048.797c6.914-1.047,12.773-2.891,19.311-6.07
		c20.826-10.211,35.357-30.68,38.326-54.258c0.41-2.938,0.488-106.531,0.41-356.828l-0.176-352.609l-1.309-5.148
		c-7.695-30.617-30.811-51.492-60.137-54.203c-3.74-0.367-71.832-0.477-219.625-0.367l-214.16,0.141l-4.893,1.109
		c-28.057,6.438-48.646,28.312-53.529,56.766c-0.947,5.531-0.947,9.547-0.85,359.234l0.156,353.586l1.318,5.133
		c3.51,14.086,9.408,24.75,19.193,34.453c8.033,8.055,17.105,13.641,27.584,16.898c9.697,2.977-6.197,2.773,228.594,2.82
		C19387.652,87049.5,19418.307,87049.406,19422.287,87048.797z M19295.064,86176.945c1.881-0.414,5.498-1.773,8.053-2.977
		c3.867-1.945,5.371-3.039,8.848-6.5c7.357-7.398,10.531-15.602,10.102-26.094c-0.381-9.32-3.803-16.953-10.498-23.359
		c-4.043-3.844-7.885-6.25-13.086-8.086l-3.916-1.359h-91.312h-91.348l-4.352,1.383c-10.131,3.344-18.848,12.047-22.207,22.102
		c-6.264,18.742,5.152,39.57,24.439,44.633c3.418,0.867,6.645,0.922,92.715,0.922
		C19278.83,86177.68,19292.131,86177.555,19295.064,86176.945z"/>
	<path fill="#284480" d="M19638.482,87065.375c-68.393-15.453-74.887-16.93-77.094-18.328c-5.846-3.812-8.145-11.742-5.264-18.391
		c2.002-4.641,7.865-8.453,12.949-8.453c1.152,0,35.957,7.578,77.275,16.859c82.09,18.406,77.695,17.25,81.055,21.641
		c5.619,7.375,3.086,17.828-5.361,22.156C19717.346,87083.25,19720.289,87083.82,19638.482,87065.375z"/>
	<path fill="#284480" d="M18520.045,85798.539l-35.932-107.867h-10.752h-10.748l-1.137-4.594
		c-1.715-7.141-2.148-11.656-1.885-19.469c0.234-6.656,1.469-14.586,2.822-18l0.473-1.156l49.742,0.094l49.74,0.109l0.938,3.031
		c3.223,10.203,3.223,22.781,0.098,33.781l-1.006,3.438l-10.57,0.141c-5.85,0.047-10.611,0.188-10.611,0.359
		c0,0.25,4.551,15.062,8.164,26.797l1.725,5.453l37.295-0.102l37.221-0.117l4.654-16.062c2.578-8.812,4.658-16.086,4.658-16.141
		c0-0.094-4.688-0.109-10.479-0.109h-10.445l-0.834-2.875c-3.203-10.875-3.203-24.656-0.059-34.906l0.893-2.891h51.285h51.318
		l0.186,1c2.715,11.414,3.49,18.531,2.885,25.453c-0.482,5.336-0.625,6.359-2.025,12.172l-1.045,4.594h-9.898h-9.945
		l-34.479,107.773l-34.453,107.703l-35.941,0.148l-35.928,0.062L18520.045,85798.539z M18602.629,85806.359
		c6.943-25.219,12.631-45.961,12.631-46.078c0-0.156-11.908-0.273-26.439-0.273h-26.514l13.75,46.484
		c7.539,25.586,13.744,46.289,13.828,46.117C18589.928,85852.406,18595.666,85831.609,18602.629,85806.359z"/>
	<path fill="#284480" d="M19744.977,85906.094c-0.082-0.227-16.303-48.758-35.986-107.859l-35.873-107.562l-10.729-0.078
		l-10.746-0.141l-1.002-3.75c-1.664-6.578-2.396-13.141-2.109-19.766c0.23-6.094,1.387-13.766,2.686-17.453l0.67-2.031h49.73h49.771
		l0.938,3.125c3.262,10.953,3.262,23.023-0.02,34.43l-0.918,3.117h-10.684c-8.375,0-10.602,0.109-10.455,0.531
		c0.078,0.281,2.369,7.594,5.02,16.25l4.83,15.75h37.275h37.275l4.398-15.344c2.441-8.383,4.488-15.703,4.678-16.219l0.211-0.969
		h-10.488h-10.488l-0.934-3.508c-2.998-11.25-2.998-23.633,0.084-34.039l0.893-3.125h51.23h51.275l0.902,3.344
		c1.787,6.75,2.35,11.125,2.35,18.703c-0.035,6.227-0.211,8.047-1.172,12.602c-0.615,2.984-1.309,6.102-1.553,6.945l-0.494,1.625
		l-9.877,0.086l-9.85,0.133l-34.535,107.766l-34.502,107.703h-35.807C19761.291,85906.359,19745.061,85906.266,19744.977,85906.094z
		 M19791.705,85806.203c6.855-24.875,12.467-45.422,12.467-45.727c0-0.352-7.021-0.469-26.377-0.469
		c-24.898,0-26.357,0.047-26.188,0.773c2.32,8.828,27.145,91.539,27.344,91.148
		C19779.137,85851.641,19784.865,85831.047,19791.705,85806.203z"/>
	<path fill="#284480" d="M18737.863,85902.438c-0.674-1.961-1.982-8.078-2.506-11.922c-1.26-8.359-0.775-16.75,1.393-25.766
		l1.172-4.797l10.967-0.141l11.025-0.078v-84.531v-84.531l-11.025-0.078l-10.967-0.141l-0.996-3.859
		c-2.988-11.82-2.988-22.32,0-34.828l0.996-4.109l96.396-0.109l96.352-0.094v47.25v47.227l-2.436,1.102
		c-10.391,4.578-26.455,5.461-39.365,2.219c-2.184-0.562-5.137-1.531-6.549-2.172l-2.578-1.148v-24.969v-24.984h-29.535h-29.512
		v83.867v83.891l12.924,0.078l12.916,0.141l0.986,3.828c2.949,11.734,3.037,22.438,0.166,34.156l-1.152,4.797l-54.225,0.141
		C18749.133,85902.945,18738.039,85902.875,18737.863,85902.438z"/>
	<path fill="#284480" d="M18956.994,85900.734c-3.545-12.5-3.545-26.461,0-38.734l0.678-2.266h10.885h10.908v-84.531v-84.531
		h-10.908h-10.885l-0.678-2.266c-3.604-12.328-3.545-26.242,0-38.688l0.678-2.266h102.246h102.285v37.469v37.477l-2.641,1.203
		c-6.289,2.859-15.078,4.141-25.381,3.742c-7.842-0.281-13.619-1.312-18.834-3.391l-3.441-1.398l-0.117-14.617l-0.088-14.703
		h-35.742h-35.719v30.391v30.391h45.797h45.732l0.439,1.641c2.52,9.625,2.803,12.078,2.777,22.125
		c-0.033,9.195-0.756,15.172-2.52,21.094l-0.697,2.227h-45.732h-45.797v28.047v28.008h34.654h34.668v-12.617v-12.586l1.201-0.602
		c7.363-3.742,22.992-5.562,33.822-3.992c5.299,0.797,11.217,2.375,13.824,3.688l1.654,0.883v35.5v35.516h-101.225h-101.168
		L18956.994,85900.734z"/>
	<path fill="#284480" d="M19194.396,85899.094c-1.934-7.914-2.363-12.094-2.08-20.125c0.225-7.297,0.371-8.188,2.715-18.219
		l0.209-1.016h10.895h10.859v-84.531v-84.531h-10.859h-10.84l-1.148-4.781c-1.684-7.156-1.992-9.773-1.992-16.594
		c0-6.867,0.309-9.375,2.018-16.781l1.123-5.062h53.197h53.199l0.635,2.266c3.607,12.547,3.607,26.398,0.043,38.688l-0.678,2.266
		h-12.598h-12.617v28.914v28.852l17.367-0.094l17.344-0.094l24.264-50.438l24.271-50.359l34.449,0.094l34.398,0.109l1.152,4.812
		c2.828,11.672,2.789,22.672-0.146,34.281l-1.006,3.703l-11.758,0.141l-11.811,0.078l-15.748,29.469
		c-8.686,16.156-16.533,30.75-17.471,32.469l-1.645,3.078l2.559,1.281c14.926,7.531,28.066,23.641,34.131,41.812
		c3.721,11.172,5.229,24.352,3.994,35.609c-3.867,35.523-27.789,60.484-64.59,67.328l-5.338,1.016l-72.807,0.141l-72.793,0.07
		L19194.396,85899.094z M19321.584,85857.594c13.828-1.375,22.979-8.047,26.566-19.336c2.008-6.328,2.203-16.609,0.455-23.562
		c-1.973-7.695-6.865-13.805-13.535-17.031c-7.51-3.547-10.449-3.867-37.07-3.867h-21.523v32.117v32.109h20.449
		C19308.141,85858.023,19319.279,85857.797,19321.584,85857.594z"/>
	<path fill="#284480" d="M19435.26,85860.391v-42.609l1.334-0.812c0.723-0.477,2.826-1.312,4.672-1.922
		c12.135-4.016,30.543-3.266,40.283,1.719l2.07,1.016v20.328v20.344h18.828h18.814v-83.906v-83.875h-11.709h-11.729l-1.061-4.594
		c-3.174-13.547-2.998-21.297,0.85-37.625l0.211-1h53.027h52.963l0.762,2.391c1.666,5.828,2.344,10.438,2.584,17.297
		c0.195,6,0.098,7.875-0.674,12.359c-0.533,2.93-1.285,6.625-1.764,8.266l-0.908,2.906h-11.518h-11.533v83.875v83.906h18.838h18.818
		v-20.492v-20.523l3.168-1.312c12.363-5.141,32.145-4.844,43.174,0.688l2.027,0.969v42.609v42.555h-115.771h-115.758V85860.391z"/>
	<path fill="#284480" d="M18445.129,85488.625c-20.674-1.914-39.619-9.531-55.625-22.391
		c-30.293-24.336-47.09-66.961-45.875-116.641c1.441-59.625,26.461-101.562,71.344-119.617c9.756-3.961,20.883-6.688,33.373-8.25
		c8.682-1.07,29.322-1.07,38.092,0.039c23.057,2.812,43.076,8.711,66.553,19.586l6.621,3.07v29.664
		c0,16.359-0.088,29.719-0.166,29.719c-0.074,0-2.441-1.602-5.166-3.57c-14.014-10.023-33.555-20.016-46.441-23.742
		c-10.883-3.18-18.285-4.18-31.02-4.18c-9.072,0.078-10.791,0.141-14.785,1c-13.209,2.906-22.027,7.531-30.865,16.359
		c-11.533,11.508-18.809,27.375-21.553,47.109c-1.068,7.625-1.332,25.594-0.473,33.773c4.623,43.852,26.025,70.086,57.1,70.203
		c12.529,0,23.877-3.305,30.775-9.008c4.834-4,9.189-10.688,11.211-17.266c1.787-5.906,2.197-9.938,2.197-24.281v-13.477
		l1.602-0.758c5.191-2.531,13.066-4.109,22.125-4.406c9.443-0.359,19.311,1.18,25.502,3.969l2.535,1.156v51.68v51.766l-1.592,0.75
		c-5.562,2.805-13.023,4.125-23.014,4.125c-9.779,0-17.201-1.32-22.572-4.062l-1.607-0.812v-6.484v-6.461l-2.885,2.688
		c-6.162,5.625-17.789,12.469-25.875,15.133C18473.947,85488.578,18459.221,85489.93,18445.129,85488.625z"/>
	<path fill="#284480" d="M19583.469,85378.266l-35.865-107.859h-10.795h-10.742l-1.094-4.578c-1.598-6.797-2.08-10.75-2.037-16.992
		c0-5.969,0.777-12.227,2.256-18.047l0.875-3.617l49.961,0.07l49.883,0.148l0.996,3.422c3.012,10.539,3.012,22.859,0,33.391
		l-0.996,3.43l-10.566,0.117c-5.855,0.047-10.621,0.273-10.621,0.43c0,0.18,2.197,7.445,4.893,16.148l4.879,15.828l37.221,0.133
		l37.295,0.086l0.84-2.875c0.484-1.625,2.525-8.594,4.541-15.547c2.002-6.906,3.775-12.961,3.887-13.344
		c0.225-0.734-0.443-0.766-10.264-0.766h-10.492l-0.889-2.859c-3.164-10.367-3.164-24.578,0-34.906l0.889-2.906h51.279h51.24
		l1.143,4.844c1.787,7.844,2.133,11.258,1.879,19.297c-0.264,7.094-0.365,8.188-2.729,18.172l-0.215,0.922h-9.938h-9.873
		l-34.506,107.75l-34.479,107.734l-36.029,0.125l-35.967,0.109L19583.469,85378.266z M19666.369,85385.156
		c6.84-24.859,12.363-45.148,12.275-45.25c-0.098-0.078-11.992-0.109-26.455-0.078l-26.314,0.148l12.92,43.836
		c15.758,53.422,14.346,48.875,14.781,47.531C19653.762,85430.719,19659.518,85409.977,19666.369,85385.156z"/>
	<path fill="#284480" d="M18599.689,85478.102c-1.689-7.148-2.105-10.539-2.139-17.031c0-6.406,0.424-9.758,2.139-16.977
		l1.098-4.641h10.875h10.859v-84.5v-84.547h-10.859h-10.875l-1.098-4.578c-1.715-7.203-2.139-10.562-2.139-16.812
		c0.033-6.312,0.488-10.188,2.139-17.211l1.098-4.633h102.457h102.445l-0.072,37.547l-0.127,37.531l-3.438,1.375
		c-5.26,2.141-10.934,3.156-18.854,3.461c-10.254,0.344-19.135-0.945-25.287-3.758l-2.705-1.219v-14.523v-14.602h-35.947h-35.953
		v30.359v30.406h45.797h45.795l0.426,1.047c0.209,0.602,0.908,3.391,1.553,6.312c0.883,4.25,1.133,6.812,1.299,13.219
		c0.273,9-0.195,14.484-1.871,21.711l-1.156,4.789h-45.908h-45.934v28.031v28.047h34.889h34.867v-12.641v-12.633l1.699-0.844
		c2.49-1.281,8.623-2.883,13.76-3.648c10.869-1.531,24.648-0.141,32.613,3.383l2.432,1.109v35.531v35.539h-101.393h-101.387
		L18599.689,85478.102z"/>
	<path fill="#284480" d="M18838.531,85482.391c-0.488-0.781-2.436-10.508-2.9-14.25c-0.893-7.469,0.068-18.43,2.383-26.414
		l0.699-2.273h10.863h10.918v-84.5v-84.547l-11-0.086l-11.016-0.117l-0.973-3.867c-3.031-12.055-2.861-25.195,0.508-36.883
		l0.699-2.281h96.25h96.289v47.258v47.219l-2.607,1.211c-12.061,5.344-33.652,5.344-45.768-0.078l-2.553-1.133v-24.961v-24.984
		h-29.537h-29.535v83.875v83.875l12.914,0.078l12.896,0.133l0.762,2.758c3.227,11.375,3.311,24.352,0.273,36.344l-0.996,3.703
		l-54.16,0.141C18863.092,85482.656,18838.615,85482.555,18838.531,85482.391z"/>
	<path fill="#284480" d="M19039.68,85480.25c-3.502-12.797-3.594-24.875-0.221-37.461l0.875-3.336h10.854h10.875v-64.695
		c0-64.617,0.111-71.617,1.553-80.977c2.904-19.555,9.906-34.719,21.723-46.828c17.809-18.312,45.543-26.953,83.721-26.062
		c27.125,0.648,46.865,5.773,62.906,16.422c6.498,4.328,14.775,12.547,19.189,19.023c8.467,12.617,13.389,27.305,15.059,45.117
		c0.229,2.93,0.42,29.438,0.42,71.391v66.609h11.127h11.08l0.639,2.273c3.604,12.445,3.604,26.711,0.055,38.742l-0.693,2.234
		h-50.195h-50.195l-1.109-4.602c-1.719-6.977-2.152-10.438-2.201-17.031c0-6.508,0.434-9.977,2.201-16.977l1.109-4.641h9.154h9.102
		v-64.188c0-43.984-0.111-65.562-0.453-68.562c-0.865-7.883-3.092-15.148-6.514-21.109c-2.061-3.578-8.037-9.672-11.504-11.703
		c-6.48-3.766-14.756-5.406-25.771-5.062c-8.564,0.266-13.652,1.328-19.307,4.094c-11.246,5.578-18.076,17.523-19.889,34.812
		c-0.268,2.406-0.434,29.406-0.434,67.867v63.852h9.16h9.16l1.098,4.641c1.807,7.5,2.096,9.844,2.148,16.562
		c0,6.82-0.375,10.094-2.148,17.445l-1.098,4.602h-50.406h-50.385L19039.68,85480.25z"/>
	<path fill="#284480" d="M19316.324,85481.102c-0.209-0.875-0.645-2.477-0.902-3.477c-2.969-11.328-2.695-23.828,0.713-35.898
		l0.615-2.273h10.908h10.873v-84.5v-84.547h-10.873h-10.908l-0.615-2.227c-3.408-12.039-3.682-24.656-0.752-35.805
		c0.264-0.984,0.678-2.531,0.883-3.461l0.484-1.742h96.25h96.303v47.305v47.32l-2.025,0.891c-6.162,2.641-11.631,3.75-20.221,4.078
		c-10.023,0.375-19.795-1.047-25.947-3.891l-2.328-1.078v-25.031v-25.062h-29.736h-29.723v83.875v83.875l12.91,0.078l12.959,0.133
		l0.762,2.805c1.562,5.688,2.438,12.312,2.438,18.312c0,6.75-0.381,9.891-1.998,16.883l-1.117,5.039h-54.268h-54.258
		L19316.324,85481.102z"/>
	<path fill="#284480" d="M19801.467,85482.391c-0.459-0.781-2.066-7.922-2.643-11.898c-1.279-8.531-0.576-19.508,1.861-28.07
		l0.781-2.758l10.957-0.133l10.996-0.078v-84.5v-84.547h-10.918h-10.898l-0.43-1c-0.215-0.625-0.898-3.453-1.549-6.367
		c-2.113-10.008-1.885-21.133,0.807-31.789l0.977-3.859h53.242h53.256l1.152,4.797c2.838,11.703,2.793,22.688-0.16,34.281
		l-0.992,3.734l-12.709,0.117l-12.711,0.086v28.898v28.875l17.418-0.07l17.383-0.141l24.219-50.359l24.229-50.391l34.467-0.047
		h34.482l1.152,4.844c1.783,7.844,2.148,11.258,1.881,19.297c-0.264,7.094-0.387,8.188-2.73,18.172l-0.219,0.922h-11.861h-11.82
		l-15.191,28.32c-8.33,15.602-16.215,30.234-17.422,32.555l-2.27,4.172l2.715,1.328c11.582,5.867,22.836,17.695,29.551,31.078
		c3.779,7.406,6.27,15.141,7.842,24.312c1.068,6.188,1.035,21.484-0.039,27.383c-2.955,16.133-9.586,29.18-20.377,40.008
		c-11.127,11.188-25.707,18.508-43.646,21.93l-4.922,0.93l-72.842,0.133
		C19834.439,85482.656,19801.559,85482.555,19801.467,85482.391z M19927.6,85437.297c14.932-1.422,24.184-8.695,27.227-21.461
		c2.256-9.43,1.221-20.203-2.666-27.898c-1.582-3.117-5.264-7.109-8.629-9.336c-3.178-2.008-9.141-3.984-14.184-4.586
		c-2.32-0.297-12.447-0.469-25.322-0.469h-21.539v32.109v32.094h20.449C19914.146,85437.75,19925.275,85437.516,19927.6,85437.297z"
		/>
</g>
</svg>
