<svg xmlns="http://www.w3.org/2000/svg" width="1024" height="1024" viewBox="0 0 1024 1024">
  <g id="Group_60476" data-name="Group 60476" transform="translate(22508 10866)">
    <rect id="Rectangle_2223" data-name="Rectangle 2223" width="1024" height="1024" transform="translate(-22508 -10866)" fill="#7f72cd"/>
    <g id="Group_60475" data-name="Group 60475" transform="translate(-23215.547 -11109)">
      <g id="Group_8332" data-name="Group 8332" transform="translate(879 643.001)">
        <g id="Group_8212" data-name="Group 8212" transform="translate(0)">
          <g id="Group_190" data-name="Group 190">
            <path id="Path_7859" data-name="Path 7859" d="M77.457,7.916A47.85,47.85,0,0,1,72.763,12a38.357,38.357,0,0,1-5.725,3.626,34.649,34.649,0,0,1-6.641,2.6,27.808,27.808,0,0,1-7.519.992,46.463,46.463,0,0,1-19.122-3.893A45.763,45.763,0,0,1,18.717,4.672,49.061,49.061,0,0,1,8.87-11.244,54.032,54.032,0,0,1,5.32-30.939,53.943,53.943,0,0,1,8.87-50.671a49.155,49.155,0,0,1,9.847-15.878A45.293,45.293,0,0,1,33.755-77.16a46.859,46.859,0,0,1,19.122-3.855,37.6,37.6,0,0,1,7.672.725,27.648,27.648,0,0,1,6.336,2.1,27.766,27.766,0,0,1,5.267,3.282,41.492,41.492,0,0,1,4.542,4.2v-31.832a5.992,5.992,0,0,1,1.489-4.122,5.657,5.657,0,0,1,4.466-1.679H99.824a5.924,5.924,0,0,1,2.1.42,7.039,7.039,0,0,1,2.023,1.183,6.125,6.125,0,0,1,1.489,1.832,4.931,4.931,0,0,1,.573,2.366V11.58q0,5.878-6.183,5.878H84.862a5.874,5.874,0,0,1-2.366-.382,3.754,3.754,0,0,1-1.412-1.107,7.7,7.7,0,0,1-1.031-1.832q-.458-1.107-1.145-2.557ZM32.8-30.939a27.87,27.87,0,0,0,1.565,9.427,22.375,22.375,0,0,0,4.466,7.6,21.207,21.207,0,0,0,6.985,5.076,21.47,21.47,0,0,0,9.046,1.87,24.16,24.16,0,0,0,9.2-1.756,23.444,23.444,0,0,0,7.519-4.847,24.1,24.1,0,0,0,5.153-7.29,23.907,23.907,0,0,0,2.176-9.008v-1.069a24.118,24.118,0,0,0-1.832-9.313A24.671,24.671,0,0,0,72-48.038a24.056,24.056,0,0,0-7.634-5.305,23.177,23.177,0,0,0-9.5-1.947,20.754,20.754,0,0,0-9.046,1.947,21.132,21.132,0,0,0-6.985,5.305,24.036,24.036,0,0,0-4.466,7.786A27.739,27.739,0,0,0,32.8-30.939Zm84.58-41.221a5.963,5.963,0,0,1-.038-5.229q1.183-2.176,5.229-2.176h18.855a4.312,4.312,0,0,1,3.13,1.183,7.4,7.4,0,0,1,1.832,2.939l21.6,61.45,21.145-61.45a6.14,6.14,0,0,1,2.137-3.282,6.566,6.566,0,0,1,3.588-.84H214.48a8.06,8.06,0,0,1,3.359.573,3.525,3.525,0,0,1,1.718,1.527,3.544,3.544,0,0,1,.344,2.137A9.535,9.535,0,0,1,219.289-73q-2.9,7.176-6.336,15.687T205.816-39.6q-3.7,9.2-7.519,18.7T190.854-2.236q-3.626,9.16-6.985,17.6t-6.145,15.5q-2.786,7.061-4.847,12.4t-3.13,8.244l.229-.382a6.638,6.638,0,0,1-1.908,3.321,4.789,4.789,0,0,1-3.359,1.26H147.075q-3.435,0-4.695-1.336a5.529,5.529,0,0,1-1.26-3.931,3.5,3.5,0,0,1,.267-1.527,3.03,3.03,0,0,1,.42-.687l11.985-31.145ZM286.159-12.389a5.36,5.36,0,0,1,2.023-.954,8.124,8.124,0,0,1,1.489-.191,5.217,5.217,0,0,1,2.366.534,6.355,6.355,0,0,1,2.214,2.29l8.55,12.9a11.494,11.494,0,0,1,.725,1.374,3.2,3.2,0,0,1,.343,1.221,3.874,3.874,0,0,1-1.107,2.863,14.643,14.643,0,0,1-2.4,1.947,57.456,57.456,0,0,1-13.7,6.985,46.906,46.906,0,0,1-15.763,2.634,49.645,49.645,0,0,1-13.244-1.756,48.647,48.647,0,0,1-11.87-5A51.29,51.29,0,0,1,235.7,4.672a47.65,47.65,0,0,1-7.786-10.114,51.858,51.858,0,0,1-5-12.023,50.056,50.056,0,0,1-1.794-13.473,50.474,50.474,0,0,1,1.794-13.511,50.952,50.952,0,0,1,5-12.023A48.074,48.074,0,0,1,235.7-66.549,50.149,50.149,0,0,1,245.777-74.3a49.563,49.563,0,0,1,11.87-4.962,49.646,49.646,0,0,1,13.244-1.756A51.187,51.187,0,0,1,286.273-78.8a47.687,47.687,0,0,1,13.244,6.565l-.229-.229a8.915,8.915,0,0,1,2.672,2.328,5.414,5.414,0,0,1,.992,3.321,5.288,5.288,0,0,1-.916,2.824l-6.794,11.527q-2.137,3.74-5.191,3.74a5.309,5.309,0,0,1-1.679-.344,9.524,9.524,0,0,1-2.214-1.183,34.829,34.829,0,0,0-7.214-3.626,23.669,23.669,0,0,0-8.206-1.412,20.154,20.154,0,0,0-8.855,1.947,20.838,20.838,0,0,0-6.908,5.305,25,25,0,0,0-4.466,7.786,27.143,27.143,0,0,0-1.6,9.313,27.27,27.27,0,0,0,1.6,9.427,23.23,23.23,0,0,0,4.466,7.6,20.9,20.9,0,0,0,6.908,5.076,20.845,20.845,0,0,0,8.855,1.87A21.787,21.787,0,0,0,278.907-8.5,36.923,36.923,0,0,0,286.159-12.389Zm157.1-59.542q-1.527-3.13-.573-5.343t4.542-2.214h19.542a5.8,5.8,0,0,1,3.473,1.069,5.675,5.675,0,0,1,2.1,3.053q1.3,4.046,2.863,9.084t3.282,10.343q1.718,5.305,3.4,10.534t3.092,9.618q1.412,4.389,2.519,7.634t1.641,4.618l16.183-51.832a7.023,7.023,0,0,1,2.252-3.282,6.367,6.367,0,0,1,3.55-.84H531.2a8.235,8.235,0,0,1,3.359.534,2.85,2.85,0,0,1,1.527,1.45,3.593,3.593,0,0,1,.153,2.1,13.067,13.067,0,0,1-.763,2.481l-36.336,87.1A9.332,9.332,0,0,1,497.15,16.5a5.268,5.268,0,0,1-3.435.954h-9.084a7.858,7.858,0,0,1-4.313-.878,5.208,5.208,0,0,1-1.87-2.4Zm100.763-1.6a6.607,6.607,0,0,1,1.374-4.2,5.092,5.092,0,0,1,4.275-1.756H567.15a5.456,5.456,0,0,1,1.985.42,6.752,6.752,0,0,1,1.985,1.221,7.945,7.945,0,0,1,1.565,1.87,4.612,4.612,0,0,1,.649,2.443V11.58a5.7,5.7,0,0,1-1.6,4.389,6.486,6.486,0,0,1-4.58,1.489H549.669q-5.649,0-5.649-5.878Zm0-38.626q0-3.206,1.374-4.542a5.937,5.937,0,0,1,4.275-1.336h17.71a6.619,6.619,0,0,1,4.313,1.336q1.641,1.336,1.641,4.542v14.885a5.456,5.456,0,0,1-.42,1.985,8.446,8.446,0,0,1-1.183,2.061,6.447,6.447,0,0,1-1.87,1.641,4.814,4.814,0,0,1-2.481.649h-17.71q-5.649,0-5.649-6.336ZM657.684,7.916A47.847,47.847,0,0,1,652.99,12a38.358,38.358,0,0,1-5.725,3.626,34.646,34.646,0,0,1-6.641,2.6,27.806,27.806,0,0,1-7.519.992,46.463,46.463,0,0,1-19.122-3.893A45.763,45.763,0,0,1,598.944,4.672,49.063,49.063,0,0,1,589.1-11.244a54.031,54.031,0,0,1-3.55-19.695,53.942,53.942,0,0,1,3.55-19.733,49.157,49.157,0,0,1,9.847-15.878A45.293,45.293,0,0,1,613.982-77.16,46.859,46.859,0,0,1,633.1-81.015a37.6,37.6,0,0,1,7.672.725,27.648,27.648,0,0,1,6.336,2.1,27.767,27.767,0,0,1,5.267,3.282,41.5,41.5,0,0,1,4.542,4.2v-31.832a5.992,5.992,0,0,1,1.488-4.122,5.658,5.658,0,0,1,4.466-1.679h17.175a5.925,5.925,0,0,1,2.1.42,7.038,7.038,0,0,1,2.023,1.183,6.123,6.123,0,0,1,1.489,1.832,4.931,4.931,0,0,1,.573,2.366V11.58q0,5.878-6.183,5.878H665.089a5.873,5.873,0,0,1-2.366-.382,3.754,3.754,0,0,1-1.412-1.107,7.7,7.7,0,0,1-1.03-1.832q-.458-1.107-1.145-2.557ZM613.028-30.939a27.872,27.872,0,0,0,1.565,9.427,22.376,22.376,0,0,0,4.466,7.6,21.207,21.207,0,0,0,6.985,5.076,21.47,21.47,0,0,0,9.046,1.87,24.161,24.161,0,0,0,9.2-1.756,23.444,23.444,0,0,0,7.519-4.847,24.105,24.105,0,0,0,5.153-7.29,23.907,23.907,0,0,0,2.176-9.008v-1.069a24.116,24.116,0,0,0-1.832-9.313,24.67,24.67,0,0,0-5.076-7.786,24.058,24.058,0,0,0-7.634-5.305,23.176,23.176,0,0,0-9.5-1.947,20.754,20.754,0,0,0-9.046,1.947,21.132,21.132,0,0,0-6.985,5.305,24.036,24.036,0,0,0-4.466,7.786A27.741,27.741,0,0,0,613.028-30.939Z" transform="translate(-5.32 118.037)" fill="#dff473"/>
            <g id="virus" transform="translate(305.988 20.991)">
              <path id="Path_6" data-name="Path 6" d="M429.774,166.884l-12.331,3.3a3.8,3.8,0,1,0,1.968,7.344l12.331-3.3.088.328a3.8,3.8,0,1,0,7.344-1.968l-2.144-8a3.8,3.8,0,1,0-7.344,1.968Z" transform="translate(-309.536 -120.767)" fill="#dff473"/>
              <path id="Path_7" data-name="Path 7" d="M436.487,287.939a3.8,3.8,0,0,0-4.656,2.688l-.088.328-12.331-3.3A3.8,3.8,0,1,0,417.444,295l12.331,3.3-.088.328a3.8,3.8,0,1,0,7.344,1.968l2.144-8a3.8,3.8,0,0,0-2.688-4.656Z" transform="translate(-309.536 -214.649)" fill="#dff473"/>
              <path id="Path_8" data-name="Path 8" d="M2.819,177.246a3.8,3.8,0,0,0,4.656-2.688l.088-.328,12.331,3.3a3.8,3.8,0,1,0,1.968-7.344l-12.331-3.3.088-.328a3.8,3.8,0,1,0-7.344-1.968l-2.144,8A3.8,3.8,0,0,0,2.819,177.246Z" transform="translate(0 -120.768)" fill="#dff473"/>
              <g id="Group_12" data-name="Group 12" transform="translate(14.224 0)">
                <path id="Path_9" data-name="Path 9" d="M300.592,2.274l-8-2.144a3.8,3.8,0,0,0-1.968,7.344l.328.088-3.3,12.331a3.8,3.8,0,0,0,7.344,1.968l3.3-12.331.329.088a3.8,3.8,0,1,0,1.968-7.344Z" transform="translate(-228.868 0)" fill="#dff473"/>
                <path id="Path_10" data-name="Path 10" d="M374.6,77.254l9.027-9.027.241.241a3.8,3.8,0,1,0,5.377-5.377l-5.857-5.857a3.8,3.8,0,1,0-5.377,5.377l.241.241-9.027,9.027a3.8,3.8,0,1,0,5.376,5.376Z" transform="translate(-289.031 -41.896)" fill="#dff473"/>
                <g id="Group_11" data-name="Group 11" transform="translate(0 0)">
                  <path id="Path_11" data-name="Path 11" d="M174.233,7.563l.328-.088A3.8,3.8,0,0,0,172.594.13l-8,2.144a3.8,3.8,0,1,0,1.968,7.344l.328-.088,3.3,12.331a3.8,3.8,0,1,0,7.344-1.968Z" transform="translate(-134.996 0)" fill="#dff473"/>
                  <path id="Path_12" data-name="Path 12" d="M68.227,62.851l.241-.241a3.8,3.8,0,1,0-5.377-5.377l-5.857,5.857a3.8,3.8,0,0,0,5.377,5.377l.241-.241,9.027,9.027a3.8,3.8,0,1,0,5.377-5.377Z" transform="translate(-56.12 -41.896)" fill="#dff473"/>
                </g>
              </g>
              <path id="Path_13" data-name="Path 13" d="M9.531,298.3,21.862,295a3.8,3.8,0,0,0-1.968-7.344l-12.331,3.3-.088-.328A3.8,3.8,0,1,0,.131,292.6l2.144,8a3.8,3.8,0,0,0,7.344-1.968Z" transform="translate(0 -214.649)" fill="#dff473"/>
              <g id="Group_14" data-name="Group 14" transform="translate(14.224 93.298)">
                <path id="Path_14" data-name="Path 14" d="M298.625,429.68l-.329.088-3.3-12.331a3.8,3.8,0,1,0-7.344,1.968l3.3,12.331-.328.088a3.8,3.8,0,1,0,1.968,7.344l8-2.144a3.8,3.8,0,1,0-1.968-7.344Z" transform="translate(-228.868 -402.828)" fill="#dff473"/>
                <path id="Path_15" data-name="Path 15" d="M383.861,378l-.241.241-9.027-9.027a3.8,3.8,0,0,0-5.377,5.377l9.027,9.027-.241.241a3.8,3.8,0,0,0,5.376,5.376l5.857-5.857A3.8,3.8,0,0,0,383.861,378Z" transform="translate(-289.03 -368.104)" fill="#dff473"/>
                <g id="Group_13" data-name="Group 13">
                  <path id="Path_16" data-name="Path 16" d="M174.848,414.749a3.8,3.8,0,0,0-4.656,2.688l-3.3,12.331-.328-.088a3.8,3.8,0,0,0-1.968,7.344l8,2.144a3.8,3.8,0,1,0,1.968-7.344l-.329-.088,3.3-12.331A3.8,3.8,0,0,0,174.848,414.749Z" transform="translate(-134.994 -402.828)" fill="#dff473"/>
                  <path id="Path_17" data-name="Path 17" d="M71.877,369.218l-9.027,9.027L62.61,378a3.8,3.8,0,1,0-5.377,5.377l5.857,5.857a3.8,3.8,0,1,0,5.377-5.376l-.241-.241,9.027-9.027a3.8,3.8,0,1,0-5.376-5.376Z" transform="translate(-56.119 -368.104)" fill="#dff473"/>
                </g>
              </g>
              <circle id="Ellipse_1" data-name="Ellipse 1" cx="49.362" cy="49.362" r="49.362" transform="translate(15.522 15.522)" fill="#dff473"/>
              <path id="Path_18" data-name="Path 18" d="M256,159.967V61.243a49.362,49.362,0,1,1,0,98.724Z" transform="translate(-191.116 -45.721)" fill="#dff473"/>
              <g id="Group_15" data-name="Group 15" transform="translate(32.577 32.577)">
                <circle id="Ellipse_2" data-name="Ellipse 2" cx="3.802" cy="3.802" r="3.802" transform="translate(28.505)" fill="#dff473"/>
                <circle id="Ellipse_3" data-name="Ellipse 3" cx="3.802" cy="3.802" r="3.802" transform="translate(28.505 57.011)" fill="#dff473"/>
                <circle id="Ellipse_4" data-name="Ellipse 4" cx="3.802" cy="3.802" r="3.802" transform="translate(20.361 36.65)" fill="#dff473"/>
                <circle id="Ellipse_5" data-name="Ellipse 5" cx="3.802" cy="3.802" r="3.802" transform="translate(36.65 36.65)" fill="#dff473"/>
                <circle id="Ellipse_6" data-name="Ellipse 6" cx="3.802" cy="3.802" r="3.802" transform="translate(36.65 20.361)" fill="#dff473"/>
                <circle id="Ellipse_7" data-name="Ellipse 7" cx="3.802" cy="3.802" r="3.802" transform="translate(20.361 20.361)" fill="#dff473"/>
                <circle id="Ellipse_8" data-name="Ellipse 8" cx="3.802" cy="3.802" r="3.802" transform="translate(57.011 28.505)" fill="#dff473"/>
                <circle id="Ellipse_9" data-name="Ellipse 9" cx="3.802" cy="3.802" r="3.802" transform="translate(0 28.505)" fill="#dff473"/>
                <circle id="Ellipse_10" data-name="Ellipse 10" cx="3.802" cy="3.802" r="3.802" transform="translate(48.662 8.35)" fill="#dff473"/>
                <circle id="Ellipse_11" data-name="Ellipse 11" cx="3.802" cy="3.802" r="3.802" transform="translate(8.349 48.663)" fill="#dff473"/>
                <circle id="Ellipse_12" data-name="Ellipse 12" cx="3.802" cy="3.802" r="3.802" transform="translate(48.662 48.663)" fill="#dff473"/>
                <circle id="Ellipse_13" data-name="Ellipse 13" cx="3.802" cy="3.802" r="3.802" transform="translate(8.349 8.35)" fill="#dff473"/>
              </g>
              <path id="Path_19" data-name="Path 19" d="M259.8,357.269a3.8,3.8,0,0,0-3.8-3.8v7.6A3.8,3.8,0,0,0,259.8,357.269Z" transform="translate(-191.116 -263.879)" fill="#dff473"/>
              <path id="Path_20" data-name="Path 20" d="M259.8,132.335a3.8,3.8,0,0,0-3.8-3.8v7.6A3.8,3.8,0,0,0,259.8,132.335Z" transform="translate(-191.116 -95.956)" fill="#dff473"/>
            </g>
          </g>
        </g>
        <text id="Dynamic_Contact_Tracing" data-name="Dynamic Contact Tracing" transform="translate(442.547 212.999)" fill="#fff" font-size="42" font-family="Rubik-Regular, Rubik" letter-spacing="-0.05em"><tspan x="-221.487" y="0">Dynamic Contact Tracing</tspan></text>
      </g>
    </g>
  </g>
</svg>
