<svg xmlns="http://www.w3.org/2000/svg" viewBox="1249.009 873.548 64.81 79.8">
  <defs>
    <style>
      .cls-1 {
        fill: #025bbc;
      }

      .cls-2 {
        fill: #e2e2e2;
      }

      .cls-3 {
        fill: #005f98;
      }

      .cls-4 {
        fill: #ff0202;
      }

      .cls-5 {
        fill: #049934;
      }

      .cls-6 {
        fill: #ffcb02;
      }

      .cls-7 {
        fill: #25aae1;
      }

      .cls-8 {
        fill: #d80000;
      }

      .cls-9 {
        fill: #007f24;
      }

      .cls-10 {
        fill: #e0aa00;
      }

      .cls-11, .cls-12 {
        fill: #353535;
      }

      .cls-11 {
        fill-rule: evenodd;
      }

      .cls-13 {
        opacity: 0.29;
      }
    </style>
  </defs>
  <g id="Group_50" data-name="Group 50" transform="translate(1249.009 873.548)">
    <g id="Group_28" data-name="Group 28" transform="translate(0 51.837)">
      <path id="Path_143" data-name="Path 143" class="cls-1" d="M6.686,306.716a2.552,2.552,0,0,1,1.653.545,2.8,2.8,0,0,1,.927,1.617l3.67-.872a5.809,5.809,0,0,0-2.253-3.416,6.573,6.573,0,0,0-4-1.29,6.658,6.658,0,0,0-4.742,1.835,6.558,6.558,0,0,0,0,9.321,6.643,6.643,0,0,0,4.742,1.817,6.459,6.459,0,0,0,4.052-1.326,5.743,5.743,0,0,0,2.2-3.47l-3.579-.781A2.573,2.573,0,0,1,6.7,312.839a2.833,2.833,0,0,1-2.126-.854,3.051,3.051,0,0,1-.8-2.217,3.191,3.191,0,0,1,.8-2.217A2.818,2.818,0,0,1,6.686,306.716Z" transform="translate(0 -300.03)"/>
      <g id="Group_26" data-name="Group 26" transform="translate(14.154)">
        <path id="Path_144" data-name="Path 144" class="cls-1" d="M87.693,304.645a5.5,5.5,0,0,0-3.816-1.345,5.655,5.655,0,0,0-4.233,1.835,7.122,7.122,0,0,0,0,9.339,5.637,5.637,0,0,0,4.233,1.817,5.527,5.527,0,0,0,3.816-1.345v.981H91.6V303.682H87.693Zm-.89,7.431a2.983,2.983,0,0,1-4.233.018,3.553,3.553,0,0,1,0-4.579,2.732,2.732,0,0,1,2.126-.89,2.876,2.876,0,0,1,2.108.908,3.081,3.081,0,0,1,.89,2.271A3.154,3.154,0,0,1,86.8,312.076Z" transform="translate(-77.9 -300.03)"/>
        <path id="Path_145" data-name="Path 145" class="cls-1" d="M172.706,306.826v-2.344H168.8v12.246h3.906v-3.834c0-3.052,1.4-4.6,4.215-4.6h.709l.164-3.906a3.215,3.215,0,0,0-.872-.091A4.726,4.726,0,0,0,172.706,306.826Z" transform="translate(-152.284 -300.848)"/>
        <path id="Path_146" data-name="Path 146" class="cls-1" d="M229.158,298.055c-1.09,0-1.635-.6-1.635-1.781v-4.252h3.616v-3.107h-3.616V285.3h-3.906v3.616H221.4v3.107h2.217v4.633a4.844,4.844,0,0,0,1.29,3.634,4.926,4.926,0,0,0,3.6,1.254,7.07,7.07,0,0,0,3.343-.908l-.908-3.071A3.509,3.509,0,0,1,229.158,298.055Z" transform="translate(-195.327 -285.3)"/>
        <path id="Path_147" data-name="Path 147" class="cls-1" d="M291.093,303.663v.981a5.5,5.5,0,0,0-3.816-1.345,5.655,5.655,0,0,0-4.233,1.835,7.122,7.122,0,0,0,0,9.339,5.637,5.637,0,0,0,4.233,1.817,5.527,5.527,0,0,0,3.816-1.345v.981H295V303.682h-3.906Zm-.89,8.412a2.983,2.983,0,0,1-4.234.018,3.553,3.553,0,0,1,0-4.579,2.732,2.732,0,0,1,2.126-.89,2.876,2.876,0,0,1,2.108.908,3.081,3.081,0,0,1,.89,2.271A3.154,3.154,0,0,1,290.2,312.076Z" transform="translate(-244.344 -300.03)"/>
      </g>
      <g id="Group_27" data-name="Group 27" transform="translate(8.83 16.589)">
        <path id="Path_148" data-name="Path 148" d="M50.8,379.162a1.836,1.836,0,0,1,1.653.981V376.6h.69v8.54h-.618v-.945a1.854,1.854,0,0,1-1.708,1.072c-1.49,0-2.217-1.345-2.217-3.071C48.58,380.506,49.307,379.162,50.8,379.162Zm1.653,1.871a1.641,1.641,0,0,0-1.544-1.254c-1.127,0-1.617,1-1.617,2.435s.491,2.435,1.617,2.435A1.658,1.658,0,0,0,52.45,383.4Z" transform="translate(-48.598 -376.6)"/>
        <path id="Path_149" data-name="Path 149" d="M80,393.771c0-1.835.872-3.071,2.344-3.071,1.617,0,2.307,1.454,2.126,3.4H80.709c.091,1.435.818,2.071,2.017,2.071a3.251,3.251,0,0,0,1.4-.309v.654a3.1,3.1,0,0,1-1.435.309C80.908,396.823,80,395.624,80,393.771Zm3.834-.273c.055-1.326-.436-2.144-1.49-2.144-1.036,0-1.581.836-1.653,2.144Z" transform="translate(-74.294 -388.138)"/>
        <path id="Path_150" data-name="Path 150" d="M125.87,391.1v.654a2.891,2.891,0,0,0-1.508-.436c-.727,0-1.254.345-1.254.963,0,1.472,3.089.89,3.089,2.943,0,1.09-.89,1.6-1.962,1.6a3.184,3.184,0,0,1-1.8-.454v-.69a3.141,3.141,0,0,0,1.762.509c.781,0,1.308-.309,1.308-.945,0-1.49-3.107-.872-3.107-2.943,0-.981.763-1.6,1.908-1.6A3.176,3.176,0,0,1,125.87,391.1Z" transform="translate(-108.991 -388.138)"/>
        <path id="Path_151" data-name="Path 151" d="M147.5,393.771c0-1.835.872-3.071,2.344-3.071,1.617,0,2.307,1.454,2.126,3.4h-3.761c.091,1.435.818,2.071,2.017,2.071a3.251,3.251,0,0,0,1.4-.309v.654a3.1,3.1,0,0,1-1.435.309C148.408,396.823,147.5,395.624,147.5,393.771Zm3.834-.273c.055-1.326-.436-2.144-1.49-2.144-1.036,0-1.581.836-1.653,2.144Z" transform="translate(-129.53 -388.138)"/>
        <path id="Path_152" data-name="Path 152" d="M178.318,390.816h.618v1.163a1.951,1.951,0,0,1,2.071-1.29v.69a1.8,1.8,0,0,0-2.017,1.563v3.725h-.69v-5.85Z" transform="translate(-154.734 -388.127)"/>
        <path id="Path_153" data-name="Path 153" d="M194.9,391.4h.745l1.435,4.288a5.126,5.126,0,0,1,.2.836c.055-.327.127-.545.2-.836l1.435-4.288h.745l-2.017,5.869h-.727Z" transform="translate(-168.318 -388.711)"/>
        <path id="Path_154" data-name="Path 154" d="M225.6,379.472a.458.458,0,0,1,.472-.472.472.472,0,1,1,0,.945A.438.438,0,0,1,225.6,379.472Zm.127,1.781h.672V387.1h-.672Z" transform="translate(-193.44 -378.564)"/>
        <path id="Path_155" data-name="Path 155" d="M239.271,396.9l-.164.727a.869.869,0,0,1,1.017.872c.018.727-.654,1.09-1.345,1.09a2.075,2.075,0,0,1-.872-.164v-.563a1.859,1.859,0,0,0,.836.164c.491,0,.781-.2.781-.545,0-.472-.563-.545-1.108-.382l.236-1.2c-1.363-.2-2.053-1.363-2.053-3.034,0-1.853.963-3.071,2.507-3.071a2.423,2.423,0,0,1,1.254.309v.654a2.207,2.207,0,0,0-1.163-.327c-1.217,0-1.89.963-1.89,2.435,0,1.49.581,2.417,1.8,2.417a2.781,2.781,0,0,0,1.308-.309v.636A2.776,2.776,0,0,1,239.271,396.9Z" transform="translate(-202.441 -388.22)"/>
        <path id="Path_156" data-name="Path 156" d="M266.388,393.771c0,1.908-.836,3.071-2.344,3.071s-2.344-1.145-2.344-3.071c0-1.908.836-3.071,2.344-3.071S266.388,391.827,266.388,393.771Zm-4,0c0,1.508.545,2.417,1.653,2.417,1.127,0,1.653-.908,1.653-2.417s-.527-2.435-1.653-2.435C262.936,391.336,262.39,392.263,262.39,393.771Z" transform="translate(-222.981 -388.138)"/>
        <path id="Path_157" data-name="Path 157" d="M295.77,391.1v.654a2.892,2.892,0,0,0-1.508-.436c-.727,0-1.254.345-1.254.963,0,1.472,3.089.89,3.089,2.943,0,1.09-.89,1.6-1.962,1.6a3.184,3.184,0,0,1-1.8-.454v-.69a3.141,3.141,0,0,0,1.762.509c.781,0,1.308-.309,1.308-.945,0-1.49-3.107-.872-3.107-2.943,0-.981.763-1.6,1.908-1.6A3.176,3.176,0,0,1,295.77,391.1Z" transform="translate(-248.021 -388.138)"/>
      </g>
    </g>
    <g id="Group_34" data-name="Group 34" transform="translate(5.087 0)">
      <circle id="Ellipse_22" data-name="Ellipse 22" class="cls-2" cx="3.87" cy="3.87" r="3.87" transform="translate(44.242 11.247)"/>
      <circle id="Ellipse_23" data-name="Ellipse 23" class="cls-2" cx="3.87" cy="3.87" r="3.87" transform="translate(39.282 4.034)"/>
      <circle id="Ellipse_24" data-name="Ellipse 24" class="cls-2" cx="3.87" cy="3.87" r="3.87" transform="translate(31.651 0)"/>
      <path id="Path_158" data-name="Path 158" class="cls-3" d="M329.7,95.6l1.181,19.369-1.181-1.98Z" transform="translate(-274.883 -78.23)"/>
      <g id="Group_30" data-name="Group 30" transform="translate(0 3.563)">
        <path id="Path_159" data-name="Path 159" class="cls-4" d="M102.951,84.008s5.742-9.067.563-29.707A22.707,22.707,0,0,1,122.7,55.373l1.181,7.141,2.871-1.181L125.9,54.61s-10.52-8.267-28.8-2.78C97.118,51.849,105.276,59.5,102.951,84.008Z" transform="translate(-84.545 -44.437)"/>
        <path id="Path_160" data-name="Path 160" class="cls-5" d="M57.207,59.18s-1.054-20.659-9.575-33.958c0,0,8.376-3.452,22.257-1.908L68.6,19.862s-17.443-1.69-27.4,3.67C41.182,23.532,51.375,30,57.207,59.18Z" transform="translate(-38.802 -19.609)"/>
        <path id="Path_161" data-name="Path 161" class="cls-6" d="M46.406,104.425S41.99,89.236,33.451,80.042l1.817-1.69L32.561,74.9,28,79.1S37.63,84.911,46.406,104.425Z" transform="translate(-28 -64.854)"/>
        <path id="Path_162" data-name="Path 162" class="cls-3" d="M143.274,146.416s-14.644,20.749-37.174,19.35l1.944-1.817s25.582-9.1,33.159-20.749Z" transform="translate(-91.91 -120.744)"/>
        <path id="Path_163" data-name="Path 163" class="cls-3" d="M244.5,140.062l-5.4-2.562,7.068.309Z" transform="translate(-200.745 -116.08)"/>
        <path id="Path_164" data-name="Path 164" class="cls-7" d="M36.14,101.36s-7.449,18.605,8.467,20.186c15.9,1.581,28.653-13.082,31.924-18.042l-6.6-.291L86.4,95.6v17.406l-3.452-5.542-.781-1.236S64.575,128.7,45.752,126.815C22.967,124.544,36.14,101.36,36.14,101.36Z" transform="translate(-31.561 -81.793)"/>
        <path id="Path_165" data-name="Path 165" class="cls-8" d="M110.06,77.64s.145-15.716-5.56-21.967c0,0,14.445-4.96,26.545,2.562,0,0-10.084-6.468-25.2-2.253C105.863,55.982,111.041,62.887,110.06,77.64Z" transform="translate(-90.6 -47.808)"/>
        <path id="Path_166" data-name="Path 166" class="cls-9" d="M60.1,49.845s-3.4-14.7-12.5-23.638a49.035,49.035,0,0,1,22.094-3.143s-15.3.6-20.4,3.4C49.308,26.461,58.229,37.526,60.1,49.845Z" transform="translate(-44.039 -22.248)"/>
        <path id="Path_167" data-name="Path 167" class="cls-10" d="M46.81,99.114S39.832,87.232,34.2,83.452L37.325,80.4l-2.162,2.889S43.757,92.283,46.81,99.114Z" transform="translate(-33.074 -69.355)"/>
        <g id="Group_29" data-name="Group 29" transform="translate(21.821 11.3)">
          <path id="Path_168" data-name="Path 168" class="cls-2" d="M149.045,83.69h7.885a.945.945,0,1,0,0-1.89h-7.885a.945.945,0,0,0,0,1.89Z" transform="translate(-148.1 -81.8)"/>
          <path id="Path_169" data-name="Path 169" class="cls-2" d="M149.045,100.39h9.466a.945.945,0,1,0,0-1.89h-9.466a.945.945,0,0,0,0,1.89Z" transform="translate(-148.1 -95.466)"/>
          <path id="Path_170" data-name="Path 170" class="cls-2" d="M161.563,115.5H149.045a.945.945,0,0,0,0,1.89h12.519a.938.938,0,0,0,.945-.945A.95.95,0,0,0,161.563,115.5Z" transform="translate(-148.1 -109.377)"/>
          <path id="Path_171" data-name="Path 171" class="cls-2" d="M153.369,134.99a.945.945,0,0,0,0-1.89h-4.324a.945.945,0,0,0,0,1.89Z" transform="translate(-148.1 -123.779)"/>
          <path id="Path_172" data-name="Path 172" class="cls-2" d="M158.039,150.2h-8.994a.945.945,0,0,0,0,1.89h8.994a.945.945,0,1,0,0-1.89Z" transform="translate(-148.1 -137.772)"/>
        </g>
      </g>
      <g id="Group_32" data-name="Group 32" transform="translate(40.3 5.069)">
        <g id="Group_31" data-name="Group 31">
          <path id="Path_173" data-name="Path 173" class="cls-11" d="M251.472,29.063a2.823,2.823,0,0,1-.745-.454,2.848,2.848,0,0,0-.927,2.017h1.326a4.368,4.368,0,0,1,.345-1.563Zm2.489,1.762h-1.217v1.326a2.743,2.743,0,0,1,.872.145,3.311,3.311,0,0,0,.345-1.472Zm-2.834,0H249.8a2.89,2.89,0,0,0,.963,2.035,3.274,3.274,0,0,1,.727-.454,4.115,4.115,0,0,1-.363-1.581Zm1.126-2.925a2.788,2.788,0,0,0-1.363.581,3.129,3.129,0,0,0,.672.4,4.154,4.154,0,0,1,.69-.981Zm1.363,1.236a3.373,3.373,0,0,1-.872.164v1.326h1.217a3.45,3.45,0,0,0-.345-1.49Zm-.872-1.217v1.163a2.829,2.829,0,0,0,.781-.145,3.541,3.541,0,0,0-.781-1.017Zm1.435,2.707h1.326a2.922,2.922,0,0,0-.927-2.017,3.4,3.4,0,0,1-.745.454,4.367,4.367,0,0,1,.345,1.563Zm.218-2.144a2.927,2.927,0,0,0-1.381-.581,3.753,3.753,0,0,1,.709.981,2.742,2.742,0,0,0,.672-.4Zm-2.635.472a2.829,2.829,0,0,0,.781.145V27.918a3.458,3.458,0,0,0-.781,1.036Zm.981,3.416v1.163a3.985,3.985,0,0,0,.781-1.036,2.706,2.706,0,0,0-.781-.127Zm.273,1.181a2.916,2.916,0,0,0,1.4-.581,3.129,3.129,0,0,0-.672-.4,4.3,4.3,0,0,1-.727.981Zm.8-1.163a2.823,2.823,0,0,1,.745.454,2.915,2.915,0,0,0,.927-2h-1.326a3.694,3.694,0,0,1-.345,1.544Zm-2.144-.055a3.381,3.381,0,0,1,.872-.182V30.825h-1.217a4.076,4.076,0,0,0,.345,1.508Zm.872,1.217V32.37a3.709,3.709,0,0,0-.781.145,3.7,3.7,0,0,0,.781,1.036Zm-1.617-.545a2.89,2.89,0,0,0,1.326.563,3.535,3.535,0,0,1-.672-.963,2.434,2.434,0,0,0-.654.4Zm.4-2.38h1.217V29.3a3.372,3.372,0,0,1-.872-.164,4.066,4.066,0,0,0-.345,1.49Zm0,0" transform="translate(-249.8 -27.9)"/>
        </g>
      </g>
      <path id="Path_174" data-name="Path 174" class="cls-12" d="M283.667,74.042l-.327.327a.658.658,0,0,1-.236.091,3.978,3.978,0,0,1-2.78-1.126,3.826,3.826,0,0,1-1.127-2.78.607.607,0,0,1,.091-.218l.327-.327a.53.53,0,0,1,.509-.127l.073.018a.689.689,0,0,1,.382.4l.164.6a.682.682,0,0,1-.127.527l-.218.218a2.322,2.322,0,0,0,1.635,1.635l.218-.236a.564.564,0,0,1,.527-.127l.6.164a.64.64,0,0,1,.4.382l.018.073a.541.541,0,0,1-.127.509Zm-1.69-2.053h.309a.613.613,0,0,0-.618-.618v.309a.3.3,0,0,1,.309.309Zm1.236,0a1.543,1.543,0,0,0-1.544-1.544v.309a1.237,1.237,0,0,1,1.236,1.236ZM281.668,69.5v.309a2.156,2.156,0,0,1,2.162,2.162h.309a2.474,2.474,0,0,0-2.471-2.471Zm0,0" transform="translate(-233.556 -56.872)"/>
      <g id="Group_33" data-name="Group 33" transform="translate(33.123 1.781)">
        <path id="Path_175" data-name="Path 175" class="cls-12" d="M212.7,9.909l-.6.382V9.8h-.6v.89l-1.2.781.182.236,2.217-1.435,2.217,1.435.182-.236Zm0,0" transform="translate(-210.3 -9.8)"/>
        <path id="Path_176" data-name="Path 176" class="cls-12" d="M215.4,14.7l-1.8,1.2v2.108h1.508v-.89h.6v.89h1.508V15.9Zm0,0" transform="translate(-213 -13.81)"/>
      </g>
    </g>
    <g id="Group_35" data-name="Group 35" class="cls-13" transform="translate(7.419 24.474)">
      <path id="Path_177" data-name="Path 177" class="cls-1" d="M42.553,134.718a27.262,27.262,0,0,0-1.163,4,22.623,22.623,0,0,0-.491,4.124,14.183,14.183,0,0,0,.454,4.106,9.573,9.573,0,0,0,1.835,3.67,9.932,9.932,0,0,0,3.216,2.544,14.638,14.638,0,0,0,1.926.763,19.108,19.108,0,0,0,2.017.472,22.407,22.407,0,0,0,4.124.309c.69,0,1.381-.018,2.071-.073a13.206,13.206,0,0,0,2.053-.254,27.661,27.661,0,0,0,4-1.09,36.973,36.973,0,0,0,3.834-1.581q1.881-.9,3.652-1.962c1.181-.727,2.344-1.49,3.452-2.308a52.472,52.472,0,0,0,6.3-5.414c.254-.236.491-.491.727-.745l.727-.745c.472-.509.927-1.036,1.4-1.544l1.345-1.581,1.308-1.617.018.018-1.272,1.653-1.308,1.617c-.454.527-.908,1.054-1.381,1.563l-.709.763c-.236.254-.472.509-.727.763a53.1,53.1,0,0,1-6.268,5.505c-1.126.836-2.289,1.6-3.47,2.326-1.2.727-2.417,1.381-3.67,1.98a35.979,35.979,0,0,1-3.87,1.581,28.713,28.713,0,0,1-4.034,1.072,13.435,13.435,0,0,1-2.071.254c-.69.036-1.4.073-2.089.055a24.573,24.573,0,0,1-4.161-.345,15.794,15.794,0,0,1-2.035-.491,12.069,12.069,0,0,1-1.944-.781,9.626,9.626,0,0,1-3.252-2.6,10.151,10.151,0,0,1-1.835-3.743,14.473,14.473,0,0,1-.418-4.143,22.674,22.674,0,0,1,.527-4.143,25.832,25.832,0,0,1,1.181-4Z" transform="translate(-40.833 -134.7)"/>
    </g>
  </g>
</svg>
