<svg xmlns="http://www.w3.org/2000/svg" xmlns:xlink="http://www.w3.org/1999/xlink" viewBox="0 0 1383.58 1808"><defs><style>.cls-1{isolation:isolate;}.cls-2{fill:#ffbe00;}.cls-15,.cls-16,.cls-3{opacity:0.68;}.cls-12,.cls-13,.cls-14,.cls-15,.cls-16,.cls-17,.cls-3,.cls-5,.cls-6,.cls-7,.cls-9{mix-blend-mode:overlay;}.cls-3{fill:url(#Gradiente_sem_nome_2);}.cls-4{fill:#0442f8;}.cls-5{fill:url(#Gradiente_sem_nome_9);}.cls-6{fill:url(#Gradiente_sem_nome_9-2);}.cls-7{fill:url(#Gradiente_sem_nome_9-3);}.cls-8{fill:none;}.cls-9{fill:url(#Gradiente_sem_nome_9-4);}.cls-10{fill:#ff364b;}.cls-11{fill:#00e58e;}.cls-12,.cls-13,.cls-14,.cls-17{opacity:0.47;}.cls-12{fill:url(#Gradiente_sem_nome_11);}.cls-13{fill:url(#Gradiente_sem_nome_11-2);}.cls-14{fill:url(#Gradiente_sem_nome_11-3);}.cls-15{fill:url(#Gradiente_sem_nome_13);}.cls-16{fill:url(#Gradiente_sem_nome_13-2);}.cls-17{fill:url(#Gradiente_sem_nome_11-4);}</style><linearGradient id="Gradiente_sem_nome_2" x1="823.46" y1="324.35" x2="555.18" y2="56.07" gradientUnits="userSpaceOnUse"><stop offset="0" stop-color="#fff"/><stop offset="0.27" stop-color="#aeaeae"/><stop offset="0.53" stop-color="#646464"/><stop offset="0.75" stop-color="#2e2e2e"/><stop offset="0.91" stop-color="#0d0d0d"/><stop offset="1"/></linearGradient><linearGradient id="Gradiente_sem_nome_9" x1="684.52" y1="675.36" x2="12.83" y2="675.36" gradientUnits="userSpaceOnUse"><stop offset="0" stop-color="#fff"/><stop offset="0.1" stop-color="#fafafa"/><stop offset="0.22" stop-color="#eaeaea"/><stop offset="0.36" stop-color="#d1d1d1"/><stop offset="0.51" stop-color="#aeaeae"/><stop offset="0.66" stop-color="gray"/><stop offset="0.82" stop-color="#484848"/><stop offset="0.98" stop-color="#080808"/><stop offset="1"/></linearGradient><linearGradient id="Gradiente_sem_nome_9-2" x1="1368.9" y1="676.4" x2="728.91" y2="676.4" xlink:href="#Gradiente_sem_nome_9"/><linearGradient id="Gradiente_sem_nome_9-3" x1="14.68" y1="1168.14" x2="562.86" y2="619.95" xlink:href="#Gradiente_sem_nome_9"/><linearGradient id="Gradiente_sem_nome_9-4" x1="772.96" y1="1191.38" x2="1236.39" y2="727.94" xlink:href="#Gradiente_sem_nome_9"/><linearGradient id="Gradiente_sem_nome_11" x1="165.89" y1="1135.82" x2="64.05" y2="1033.98" gradientUnits="userSpaceOnUse"><stop offset="0" stop-color="#fff"/><stop offset="0.36" stop-color="#fdfdfd"/><stop offset="0.49" stop-color="#f6f6f6"/><stop offset="0.59" stop-color="#eaeaea"/><stop offset="0.67" stop-color="#d9d9d9"/><stop offset="0.74" stop-color="#c3c3c3"/><stop offset="0.8" stop-color="#a7a7a7"/><stop offset="0.85" stop-color="#868686"/><stop offset="0.91" stop-color="#606060"/><stop offset="0.95" stop-color="#353535"/><stop offset="0.99" stop-color="#060606"/><stop offset="1"/></linearGradient><linearGradient id="Gradiente_sem_nome_11-2" x1="158.35" y1="1363.74" x2="66.29" y2="1271.68" xlink:href="#Gradiente_sem_nome_11"/><linearGradient id="Gradiente_sem_nome_11-3" x1="923.73" y1="1098.17" x2="818.46" y2="992.9" xlink:href="#Gradiente_sem_nome_11"/><linearGradient id="Gradiente_sem_nome_13" x1="149.39" y1="1296.53" x2="37.16" y2="1184.29" gradientUnits="userSpaceOnUse"><stop offset="0" stop-color="#fff"/><stop offset="0.26" stop-color="#fdfdfd"/><stop offset="0.39" stop-color="#f5f5f5"/><stop offset="0.5" stop-color="#e7e7e7"/><stop offset="0.6" stop-color="#d4d4d4"/><stop offset="0.68" stop-color="#bbb"/><stop offset="0.76" stop-color="#9c9c9c"/><stop offset="0.83" stop-color="#777"/><stop offset="0.9" stop-color="#4c4c4c"/><stop offset="0.96" stop-color="#1e1e1e"/><stop offset="1"/></linearGradient><linearGradient id="Gradiente_sem_nome_13-2" x1="891.38" y1="1235.09" x2="799.3" y2="1143.02" xlink:href="#Gradiente_sem_nome_13"/><linearGradient id="Gradiente_sem_nome_11-4" x1="1272.07" y1="1531.46" x2="900.61" y2="1160" xlink:href="#Gradiente_sem_nome_11"/></defs><title>Asset 1</title><g class="cls-1"><g id="Layer_2" data-name="Layer 2"><g id="Camada_1" data-name="Camada 1"><path class="cls-2" d="M600.34,125.19c-27.62-14.88-45.17-34.37-43.45-70.83,17.05,29.87,37.93,47.09,71.62,40.67-5.89-12.48-14.33-24.25-16.74-37.14s1.23-26.88,4-40.23c17.91,45.5,25.28,54,55.12,60C664.74,49.87,663.24,23.17,691.66,0c-10.4,33.36-4.73,58.85,21.53,78.5,4.73-13.14,7.26-27.22,14.49-38.21C734.61,29.74,746.4,22.38,759,15c-16.43,26.51-23.11,52.39-3.94,81.91,15.06-24,31.65-44.72,63.57-41.34-35.52,40.05-36.5,42.08-33.45,73.53C808.58,110,833.26,101,865.9,115.6c-33.55,5.48-57,18.93-64.53,54.32,28.4-9.56,53.86-8.46,78.74,17.75-33.54-8.23-59.13-3.24-79.4,25.26,28.89,3.12,53,12.57,62.82,44.44-25.16-18.15-50.85-23.16-80.59-4.63,26.42,14.42,45.16,33.36,42.65,69.48-17.12-28.86-37.91-45.56-73.69-39.09,19.09,23.57,28.49,48.61,12.68,79.94-4.75-32.39-17.75-55.83-53.58-64,9.19,29.26,7.88,55.59-19.8,79.53,10.94-33.95,4.75-59.22-23.88-81-2.66,31-13.86,55-48.33,66.37,21.61-27.14,27.94-53.07,8.65-83.45-14.46,26.27-33.11,44.85-69.54,42.5,29.89-17.12,45.18-38.81,39.63-73.39-23.64,17.5-47.45,28.23-80.7,12.09,34.78-4.33,56.68-19.08,64-50.55-57.4-.23-60-.92-77.52-21.58,31.3,8.84,57.75,5,78.58-23.94-29.85-4.35-54.76-14.59-65.66-48.88C542.79,137.68,568.87,144,600.34,125.19Z"/><path class="cls-3" d="M600.34,125.19c-27.62-14.88-45.17-34.37-43.45-70.83,17.05,29.87,37.93,47.09,71.62,40.67-5.89-12.48-14.33-24.25-16.74-37.14s1.23-26.88,4-40.23c17.91,45.5,25.28,54,55.12,60C664.74,49.87,663.24,23.17,691.66,0c-10.4,33.36-4.73,58.85,21.53,78.5,4.73-13.14,7.26-27.22,14.49-38.21C734.61,29.74,746.4,22.38,759,15c-16.43,26.51-23.11,52.39-3.94,81.91,15.06-24,31.65-44.72,63.57-41.34-35.52,40.05-36.5,42.08-33.45,73.53C808.58,110,833.26,101,865.9,115.6c-33.55,5.48-57,18.93-64.53,54.32,28.4-9.56,53.86-8.46,78.74,17.75-33.54-8.23-59.13-3.24-79.4,25.26,28.89,3.12,53,12.57,62.82,44.44-25.16-18.15-50.85-23.16-80.59-4.63,26.42,14.42,45.16,33.36,42.65,69.48-17.12-28.86-37.91-45.56-73.69-39.09,19.09,23.57,28.49,48.61,12.68,79.94-4.75-32.39-17.75-55.83-53.58-64,9.19,29.26,7.88,55.59-19.8,79.53,10.94-33.95,4.75-59.22-23.88-81-2.66,31-13.86,55-48.33,66.37,21.61-27.14,27.94-53.07,8.65-83.45-14.46,26.27-33.11,44.85-69.54,42.5,29.89-17.12,45.18-38.81,39.63-73.39-23.64,17.5-47.45,28.23-80.7,12.09,34.78-4.33,56.68-19.08,64-50.55-57.4-.23-60-.92-77.52-21.58,31.3,8.84,57.75,5,78.58-23.94-29.85-4.35-54.76-14.59-65.66-48.88C542.79,137.68,568.87,144,600.34,125.19Z"/><path class="cls-4" d="M684.49,651.59c-.08-8.18-.59-16.24-1.39-24.21-.38-3.52-.77-7-1.27-10.48,0-.18-.05-.37-.07-.55a287.25,287.25,0,0,0-9.11-40.85c-.24-.78-.46-1.57-.71-2.35-.7-2.26-1.49-4.47-2.25-6.7A272.27,272.27,0,0,0,606,464.53C552.7,412,476,381.44,387,381.2l-16.62,0c-.94,0-1.87,0-2.81,0-.34,0-.7,0-1,0H294c-130.15,0-281.13,119.34-281.13,255.68V969.55s145.28-144.06,214-157.09a151,151,0,0,1-29.59-65.54c1.47-.3,2.94-.65,4.43-.92-2.5.27-3.39.45-3.39.45.12-93.57,78.59-176.54,171.88-176.42l41,.05a85.75,85.75,0,0,1,16.64,1.68A85.74,85.74,0,0,0,416,570.07a257,257,0,0,1,126.77,38.74c63.75,39.67,109.34,107.64,120.53,185.43,6.45-16.38,11.29-35.56,14.94-54.8C682.62,713.52,684.81,684.37,684.49,651.59Z"/><path class="cls-5" d="M684.49,651.59c-.08-8.18-.59-16.24-1.39-24.21-.38-3.52-.77-7-1.27-10.48,0-.18-.05-.37-.07-.55a287.25,287.25,0,0,0-9.11-40.85c-.24-.78-.46-1.57-.71-2.35-.7-2.26-1.49-4.47-2.25-6.7A272.27,272.27,0,0,0,606,464.53C552.7,412,476,381.44,387,381.2l-16.62,0c-.94,0-1.87,0-2.81,0-.34,0-.7,0-1,0H294c-130.15,0-281.13,119.34-281.13,255.68V969.55s145.28-144.06,214-157.09a151,151,0,0,1-29.59-65.54c1.47-.3,2.94-.65,4.43-.92-2.5.27-3.39.45-3.39.45.12-93.57,78.59-176.54,171.88-176.42l41,.05a85.75,85.75,0,0,1,16.64,1.68A85.74,85.74,0,0,0,416,570.07a257,257,0,0,1,126.77,38.74c63.75,39.67,109.34,107.64,120.53,185.43,6.45-16.38,11.29-35.56,14.94-54.8C682.62,713.52,684.81,684.37,684.49,651.59Z"/><path class="cls-4" d="M1368.9,567.93h0a185.76,185.76,0,0,0-185.71-185.71H1010.87c-130.53,0-282,119.33-282,255.68V970.59S874.62,826.53,943.56,813.5C922.83,787,910.6,753.79,911.5,718c.09-3.89.43-7.74.89-11.55.11-.92.2-1.85.33-2.77a127,127,0,0,1,5.87-24c.59-1.7,1.24-3.36,1.9-5,.26-.66.51-1.33.78-2,.8-1.94,1.65-3.84,2.53-5.72.22-.45.43-.91.65-1.36.85-1.75,1.72-3.48,2.64-5.17.51-1,1-1.93,1.6-2.89s1.14-2,1.74-3c28.2-47.36,84-80.66,140.38-85.28a107.17,107.17,0,0,1,13.56-1.08C1075.19,568.21,1368.9,567.93,1368.9,567.93ZM994,563.81s0,0,0,0l-.4,0Z"/><path class="cls-6" d="M1368.9,567.93h0a185.76,185.76,0,0,0-185.71-185.71H1010.87c-130.53,0-282,119.33-282,255.68V970.59S874.62,826.53,943.56,813.5C922.83,787,910.6,753.79,911.5,718c.09-3.89.43-7.74.89-11.55.11-.92.2-1.85.33-2.77a127,127,0,0,1,5.87-24c.59-1.7,1.24-3.36,1.9-5,.26-.66.51-1.33.78-2,.8-1.94,1.65-3.84,2.53-5.72.22-.45.43-.91.65-1.36.85-1.75,1.72-3.48,2.64-5.17.51-1,1-1.93,1.6-2.89s1.14-2,1.74-3c28.2-47.36,84-80.66,140.38-85.28a107.17,107.17,0,0,1,13.56-1.08C1075.19,568.21,1368.9,567.93,1368.9,567.93ZM994,563.81s0,0,0,0l-.4,0Z"/><path class="cls-4" d="M663.2,794.24c-.07-.45.29-.73,0,0C652.38,715.58,606.06,649,542.3,608.81a258.32,258.32,0,0,0-127.14-38.74,86,86,0,0,1,11.89,1.69l1.71.36c1.89.43,3.76.93,5.6,1.48,1.09.32,2.18.65,3.25,1,1.34.46,2.66,1,4,1.5s2.64,1.06,3.93,1.66,2.31,1.13,3.46,1.72,2.45,1.26,3.64,2c1.48.86,2.91,1.79,4.33,2.74.69.46,1.4.89,2.07,1.37a86.07,86.07,0,0,1,36.68,70.53v.49c0,.44-.06.86-.07,1.3s.07.93.07,1.4a75.94,75.94,0,0,1-10.31,38.08c-.09.18-.2.34-.3.52-.55.94-1.12,1.88-1.7,2.8a85.6,85.6,0,0,1-66.19,41.25,70,70,0,0,1-7.06.37H326.23c-87,.43-117,2.72-126,3.7C96.34,765.18,13.34,857.84,12.27,965.81l-.06,44.72v155.14c7.64-61.38,54-140.63,91.94-170.18,65.58-51,119.73-61.26,168.34-62,1.45-.06,2.91-.13,4.37-.15a.69.69,0,0,0,.42-.13h0c5.13.1,60.69,0,60.69,0H440.39C540,933.23,634.8,863.49,663.2,794.24Z"/><path class="cls-7" d="M663.2,794.24c-.07-.45.29-.73,0,0C652.38,715.58,606.06,649,542.3,608.81a258.32,258.32,0,0,0-127.14-38.74,86,86,0,0,1,11.89,1.69l1.71.36c1.89.43,3.76.93,5.6,1.48,1.09.32,2.18.65,3.25,1,1.34.46,2.66,1,4,1.5s2.64,1.06,3.93,1.66,2.31,1.13,3.46,1.72,2.45,1.26,3.64,2c1.48.86,2.91,1.79,4.33,2.74.69.46,1.4.89,2.07,1.37a86.07,86.07,0,0,1,36.68,70.53v.49c0,.44-.06.86-.07,1.3s.07.93.07,1.4a75.94,75.94,0,0,1-10.31,38.08c-.09.18-.2.34-.3.52-.55.94-1.12,1.88-1.7,2.8a85.6,85.6,0,0,1-66.19,41.25,70,70,0,0,1-7.06.37H326.23c-87,.43-117,2.72-126,3.7C96.34,765.18,13.34,857.84,12.27,965.81l-.06,44.72v155.14c7.64-61.38,54-140.63,91.94-170.18,65.58-51,119.73-61.26,168.34-62,1.45-.06,2.91-.13,4.37-.15a.69.69,0,0,0,.42-.13h0c5.13.1,60.69,0,60.69,0H440.39C540,933.23,634.8,863.49,663.2,794.24Z"/><path class="cls-4" d="M400,576.23c3.19,0,6.36.08,9.53.19-1.81-.11-3.64-.19-5.48-.19Z"/><path class="cls-8" d="M271.26,933.36h0Z"/><path class="cls-4" d="M1307.18,799.12a185,185,0,0,0-124-47.49H1010.87c-114,0-281.91,69.53-281.91,214.18l-.05,181.51c.66,1.9,125.47-205.21,252-209.79,1.81-.11,3.63-.19,5.47-.19H1368.9A185.21,185.21,0,0,0,1307.18,799.12ZM993.57,933.23h0Z"/><path class="cls-9" d="M1307.18,799.12a185,185,0,0,0-124-47.49H1010.87c-114,0-281.91,69.53-281.91,214.18l-.05,181.51c.66,1.9,125.47-205.21,252-209.79,1.81-.11,3.63-.19,5.47-.19H1368.9A185.21,185.21,0,0,0,1307.18,799.12ZM993.57,933.23h0Z"/><path d="M274,933.33c-.75,0-1.49,0-2.23,0h60.89v0Z"/><path class="cls-10" d="M15.62,1270.08A264.19,264.19,0,0,1,195.88,1071.6v-62.86a75.37,75.37,0,0,1,74.91-75.37c-133.11,1.56-242.51,101.7-258.58,230.83v125.3Z"/><path class="cls-11" d="M17,1380.24c-3.54,17.13-4.16,21-4.16,39.19l-.62,14.28h0c101.56,0,183.9-82.33,183.9-183.9V1185.4C106.08,1213.25,36.26,1286.78,17,1380.24Z"/><path class="cls-10" d="M912.72,1073.05a127,127,0,0,1,5.87-24c.59-1.71,1.24-3.37,1.9-5,.26-.67.51-1.33.78-2,.8-1.94,1.65-3.84,2.53-5.72l.65-1.37c.85-1.75,1.72-3.47,2.64-5.17.51-1,1-1.92,1.6-2.88s1.14-2,1.74-3c28.2-47.35,84-80.65,140.38-85.28a105.17,105.17,0,0,1,13.56-1.07c-9.18.11-25.91.1-75.36.06-52.75,0-116.22-.2-190.93,57.91-38,29.55-81.53,88-89.17,149.43v23.2a257.46,257.46,0,0,0,13,69.53C768.67,1158.75,832.69,1097.84,912.72,1073.05Z"/><path class="cls-12" d="M15.62,1270.08A264.19,264.19,0,0,1,195.88,1071.6v-62.86a75.37,75.37,0,0,1,74.91-75.37c-133.11,1.56-242.51,101.7-258.58,230.83v125.3Z"/><path class="cls-13" d="M17,1380.24c-3.54,17.13-4.16,21-4.16,39.19l-.62,14.28h0c101.56,0,183.9-82.33,183.9-183.9V1185.4C106.08,1213.25,36.26,1286.78,17,1380.24Z"/><path class="cls-14" d="M912.72,1073.05a127,127,0,0,1,5.87-24c.59-1.71,1.24-3.37,1.9-5,.26-.67.51-1.33.78-2,.8-1.94,1.65-3.84,2.53-5.72l.65-1.37c.85-1.75,1.72-3.47,2.64-5.17.51-1,1-1.92,1.6-2.88s1.14-2,1.74-3c28.2-47.35,84-80.65,140.38-85.28a105.17,105.17,0,0,1,13.56-1.07c-9.18.11-25.91.1-75.36.06-52.75,0-116.22-.2-190.93,57.91-38,29.55-81.53,88-89.17,149.43v23.2a257.46,257.46,0,0,0,13,69.53C768.67,1158.75,832.69,1097.84,912.72,1073.05Z"/><path class="cls-2" d="M17,1263.72c-3.54,17.12-5.16,21-5.16,39.18l.38,17.08v113.73c0-41.54,9.71-78.86,27-113.73a261.84,261.84,0,0,1,156.93-133.9V1068.87C106.08,1096.73,36.26,1170.25,17,1263.72Z"/><path class="cls-15" d="M17,1263.72c-3.54,17.12-5.16,21-5.16,39.18l.38,17.08v113.73c0-41.54,9.71-78.86,27-113.73a261.84,261.84,0,0,1,156.93-133.9V1068.87C106.08,1096.73,36.26,1170.25,17,1263.72Z"/><path class="cls-2" d="M911.5,1087.37c.09-3.9.43-7.74.89-11.56.11-.92.2-1.85.33-2.76-80,24.79-144.05,85.7-170.8,164.6l.36,1.12A270.85,270.85,0,0,0,770.85,1298,260.22,260.22,0,0,1,792,1269.56c31.14-36.21,82.61-73.61,151.55-86.64C922.83,1156.37,910.6,1123.21,911.5,1087.37Z"/><path class="cls-11" d="M1185.2,1244.76l-116.54-.25c-50.08-.06-96-24.29-125.1-61.59-68.94,13-120.41,50.43-151.55,86.64A260.22,260.22,0,0,0,770.85,1298c50.85,79.32,142,133.15,243,133.28l357.85.55C1371.88,1328.62,1288.36,1244.89,1185.2,1244.76Z"/><path class="cls-16" d="M911.5,1087.37c.09-3.9.43-7.74.89-11.56.11-.92.2-1.85.33-2.76-80,24.79-144.05,85.7-170.8,164.6l.36,1.12A270.85,270.85,0,0,0,770.85,1298,260.22,260.22,0,0,1,792,1269.56c31.14-36.21,82.61-73.61,151.55-86.64C922.83,1156.37,910.6,1123.21,911.5,1087.37Z"/><path class="cls-17" d="M1185.2,1244.76l-116.54-.25c-50.08-.06-96-24.29-125.1-61.59-68.94,13-120.41,50.43-151.55,86.64A260.22,260.22,0,0,0,770.85,1298c50.85,79.32,142,133.15,243,133.28l357.85.55C1371.88,1328.62,1288.36,1244.89,1185.2,1244.76Z"/><path class="cls-4" d="M0,1715.71v-.52c0-51,38.2-92.8,92.55-92.8,27.68,0,45.89,8.2,61.52,20.25a15.75,15.75,0,0,1,6.16,12.56,15.77,15.77,0,0,1-25.13,12.31c-12.3-10-25.64-16.15-42.81-16.15-34.1,0-59.22,28.2-59.22,63.32v.51c0,35.13,24.87,63.58,59.22,63.58,19,0,31.79-6.15,44.86-17.17a14.36,14.36,0,0,1,9.49-3.59c8,0,14.87,6.66,14.87,14.61a15.15,15.15,0,0,1-5.13,11.28c-16.92,14.87-36.15,24.1-65.12,24.1C39,1808,0,1767.24,0,1715.71Z"/><path class="cls-4" d="M224.57,1639.82a15.77,15.77,0,0,1,31.53,0v150.75a15.77,15.77,0,0,1-31.53,0Z"/><path class="cls-4" d="M329.67,1641.36a15.66,15.66,0,0,1,15.9-15.9h51c56.41,0,95.37,38.72,95.37,89.22v.51c0,50.51-39,89.73-95.37,89.73h-51a15.66,15.66,0,0,1-15.9-15.89Zm66.91,134.85c37.69,0,62.3-25.38,62.3-60.5v-.52c0-35.12-24.61-61-62.3-61H361.21v122Z"/><path class="cls-4" d="M536.56,1784.41l66.65-148.69c3.59-8,10-12.82,19-12.82h1.54c9,0,15.12,4.87,18.71,12.82l66.65,148.69a13.79,13.79,0,0,1,1.8,6.67A14.78,14.78,0,0,1,696,1806.21c-7.44,0-12.56-4.37-15.38-11L666,1761.6H578.86l-15.12,34.61a15.18,15.18,0,0,1-14.62,10,14.45,14.45,0,0,1-14.61-14.62A16.19,16.19,0,0,1,536.56,1784.41ZM654,1733.65l-31.54-72.55-31.53,72.55Z"/><path class="cls-4" d="M770.62,1641.36a15.66,15.66,0,0,1,15.89-15.9h51c56.41,0,95.38,38.72,95.38,89.22v.51c0,50.51-39,89.73-95.38,89.73h-51A15.65,15.65,0,0,1,770.62,1789Zm66.9,134.85c37.7,0,62.31-25.38,62.31-60.5v-.52c0-35.12-24.61-61-62.31-61H802.15v122Z"/><path class="cls-4" d="M977.5,1784.41l66.65-148.69c3.59-8,10-12.82,19-12.82h1.54c9,0,15.12,4.87,18.71,12.82L1150,1784.41a13.79,13.79,0,0,1,1.8,6.67,14.78,14.78,0,0,1-14.87,15.13c-7.44,0-12.56-4.37-15.38-11L1107,1761.6H1019.8l-15.12,34.61a15.18,15.18,0,0,1-14.62,10,14.45,14.45,0,0,1-14.61-14.62A16.19,16.19,0,0,1,977.5,1784.41Zm49.73-173.3c-5.12,0-9.48-4.1-9.48-8.46a26.12,26.12,0,0,1,1-5.9c5.39-14.87,12.57-23.33,26.15-23.33,14.11,0,27.7,10.26,36.92,10.26,5.9,0,8.72-2.56,11.79-8.21,1.8-2.81,4.62-5.12,8.46-5.12,5.13,0,9.49,4.1,9.49,8.46a26.08,26.08,0,0,1-1,5.89c-5.38,14.87-12.55,23.33-26.15,23.33-14.09,0-27.68-10.25-36.91-10.25-5.9,0-8.72,2.56-11.8,8.2C1033.9,1608.8,1031.34,1611.11,1027.23,1611.11Zm67.69,122.54-31.54-72.55-31.53,72.55Z"/><path class="cls-4" d="M1195.92,1715.71v-.52c0-50.5,39-92.8,94.08-92.8s93.58,41.79,93.58,92.29v.51c0,50.51-39,92.81-94.09,92.81S1195.92,1766.21,1195.92,1715.71Zm154.59,0v-.52c0-34.86-25.38-63.83-61-63.83s-60.5,28.46-60.5,63.32v.51c0,34.87,25.38,63.58,61,63.58S1350.51,1750.57,1350.51,1715.71Z"/></g></g></g></svg>